<?xml version="1.0" encoding="utf-8"?>
<!-- Generator: Adobe Illustrator 23.0.6, SVG Export Plug-In . SVG Version: 6.00 Build 0)  -->
<svg version="1.1" id="Layer_1" xmlns="http://www.w3.org/2000/svg" xmlns:xlink="http://www.w3.org/1999/xlink" x="0px" y="0px"
	 viewBox="0 0 402.14 515.61" style="enable-background:new 0 0 402.14 515.61;" xml:space="preserve">
<style type="text/css">
	.st0{opacity:0.2;}
	.st1{fill:url(#SVGID_1_);}
</style>
<g class="st0">
	<linearGradient id="SVGID_1_" gradientUnits="userSpaceOnUse" x1="480.1898" y1="-74.5539" x2="27.7478" y2="550.8804">
		<stop  offset="0" style="stop-color:#8659A5"/>
		<stop  offset="1" style="stop-color:#3F2E8D"/>
	</linearGradient>
	<path class="st1" d="M49.84,217.77c-1.97-5.24-3.94-22.28-3.94-35.37c0-75.98,56.99-144.09,159.16-144.09
		c97.58,0,157.84,63.53,157.84,139.5c0,55.02-29.47,100.22-83.84,132.3l-80.56,47.81c-12.45,7.86-22.92,16.38-28.82,28.82h196.49
		v86.46H43.29c0-77.94,22.27-142.12,100.21-187.32l69.42-40.61c33.41-19.65,46.51-37.34,46.51-65.5c0-26.86-19-50.44-56.99-50.44
		c-39.95,0-59.6,27.51-59.6,62.88c0,8.52,1.31,17.68,3.94,26.2L49.84,217.77z"/>
</g>
</svg>
