<?xml version="1.0" encoding="utf-8"?>
<!-- Generator: Adobe Illustrator 23.0.6, SVG Export Plug-In . SVG Version: 6.00 Build 0)  -->
<svg version="1.1" id="Layer_1" xmlns="http://www.w3.org/2000/svg" xmlns:xlink="http://www.w3.org/1999/xlink" x="0px" y="0px"
	 viewBox="0 0 402.14 515.61" style="enable-background:new 0 0 402.14 515.61;" xml:space="preserve">
<style type="text/css">
	.st0{opacity:0.2;}
	.st1{fill:url(#SVGID_1_);}
</style>
<g class="st0">
	<linearGradient id="SVGID_1_" gradientUnits="userSpaceOnUse" x1="524.0833" y1="-126.5701" x2="-14.8549" y2="452.2894">
		<stop  offset="0" style="stop-color:#8659A5"/>
		<stop  offset="1" style="stop-color:#3F2E8D"/>
	</linearGradient>
	<path class="st1" d="M120.51,212.94l104.79-85.79H47.81V40.69h306.52v79.91l-104.8,81.21c65.5,4.58,119.2,56.99,119.2,129.68
		c0,75.33-62.22,143.44-167.01,143.44c-98.89,0-161.78-63.53-168.33-136.23l99.56-18.34c1.31,37.34,28.16,66.81,68.11,66.81
		s63.54-26.85,63.54-58.29c0-40.61-31.44-57.64-61.57-57.64c-13.76,0-28.16,4.59-37.99,9.83L120.51,212.94z"/>
</g>
</svg>
