<?xml version="1.0" encoding="utf-8"?>
<!-- Generator: Adobe Illustrator 23.0.6, SVG Export Plug-In . SVG Version: 6.00 Build 0)  -->
<svg version="1.1" id="Layer_1" xmlns="http://www.w3.org/2000/svg" xmlns:xlink="http://www.w3.org/1999/xlink" x="0px" y="0px"
	 viewBox="0 0 1080 1080" style="enable-background:new 0 0 1080 1080;" xml:space="preserve">
<style type="text/css">
	.st0{clip-path:url(#SVGID_2_);}
	.st1{opacity:0.41;}
	.st2{fill:url(#SVGID_3_);}
	.st3{fill:url(#SVGID_4_);}
	.st4{fill:url(#SVGID_5_);}
	.st5{fill:url(#SVGID_6_);}
	.st6{fill:url(#SVGID_7_);}
	.st7{fill:#CACACB;}
	.st8{fill:#F1F1F1;}
	.st9{fill:#A547E8;}
	.st10{fill:#CBCBCB;}
	.st11{fill:#403D58;}
	.st12{fill:#FFFFFF;}
	.st13{fill:#E5E5E5;}
	.st14{fill:#FFB1B3;}
	.st15{fill:#E3E3E3;}
	.st16{fill:#2F2E43;}
</style>
<g>
	<defs>
		<rect id="SVGID_1_" width="1080" height="1009.8"/>
	</defs>
	<clipPath id="SVGID_2_">
		<use xlink:href="#SVGID_1_"  style="overflow:visible;"/>
	</clipPath>
	<g class="st0">
		<g class="st1">
			<linearGradient id="SVGID_3_" gradientUnits="userSpaceOnUse" x1="240.8373" y1="345.9172" x2="1205.3712" y2="345.9172">
				<stop  offset="0" style="stop-color:#FFFFFF"/>
				<stop  offset="0.1355" style="stop-color:#F9F8FC"/>
				<stop  offset="0.3281" style="stop-color:#EAE6F5"/>
				<stop  offset="0.5549" style="stop-color:#D1C7E9"/>
				<stop  offset="0.8056" style="stop-color:#AE9DD8"/>
				<stop  offset="1" style="stop-color:#8F77C9"/>
			</linearGradient>
			<path class="st2" d="M650.95,580.37V150.63l66.22,19.55V-136.2c-263.6,3.19-476.34,217.76-476.34,482.12
				s212.73,478.93,476.34,482.12V552.62L650.95,580.37z M587.13,484.63l-79.78,21.27v-287.2l79.78,15.96V484.63z"/>
			<linearGradient id="SVGID_4_" gradientUnits="userSpaceOnUse" x1="240.8371" y1="-133.424" x2="1205.3711" y2="-133.424">
				<stop  offset="0" style="stop-color:#FFFFFF"/>
				<stop  offset="0.1916" style="stop-color:#EEEAF7"/>
				<stop  offset="0.5865" style="stop-color:#C2B5E2"/>
				<stop  offset="1" style="stop-color:#8F77C9"/>
			</linearGradient>
			<path class="st3" d="M723.1-136.35c-0.99,0-1.97,0.07-2.97,0.07c26.5,0.14,52.54,2.13,78.06,5.78
				C773.73-134.33,748.65-136.35,723.1-136.35z"/>
			<linearGradient id="SVGID_5_" gradientUnits="userSpaceOnUse" x1="182.3156" y1="162.6317" x2="1258.7638" y2="-437.3559">
				<stop  offset="0" style="stop-color:#FFFFFF"/>
				<stop  offset="0.1916" style="stop-color:#EEEAF7"/>
				<stop  offset="0.5865" style="stop-color:#C2B5E2"/>
				<stop  offset="1" style="stop-color:#8F77C9"/>
			</linearGradient>
			<path class="st4" d="M717.17-136.35v0.15c0.99-0.01,1.97-0.07,2.96-0.07C719.15-136.28,718.17-136.35,717.17-136.35z"/>
			<linearGradient id="SVGID_6_" gradientUnits="userSpaceOnUse" x1="240.8371" y1="345.9547" x2="1205.3711" y2="345.9547">
				<stop  offset="0" style="stop-color:#FFFFFF"/>
				<stop  offset="0.1916" style="stop-color:#EEEAF7"/>
				<stop  offset="0.5865" style="stop-color:#C2B5E2"/>
				<stop  offset="1" style="stop-color:#8F77C9"/>
			</linearGradient>
			<path class="st5" d="M1205.37,345.92c0-240.8-176.49-440.34-407.17-476.42c-25.52-3.65-51.57-5.64-78.06-5.78
				c-0.99,0.01-1.97,0.06-2.96,0.07v306.38l45.46,13.42v349.96l-45.46,19.05v275.42c1.98,0.02,3.94,0.15,5.93,0.15
				C989.45,828.18,1205.37,612.27,1205.37,345.92z M821.14,99.47l138.28,71.37v356.34L821.14,631.53V99.47z"/>
			<linearGradient id="SVGID_7_" gradientUnits="userSpaceOnUse" x1="450.9966" y1="620.8737" x2="1708.981" y2="-80.2979">
				<stop  offset="0" style="stop-color:#FFFFFF"/>
				<stop  offset="0.1342" style="stop-color:#F8F6FC"/>
				<stop  offset="0.3497" style="stop-color:#E5DFF2"/>
				<stop  offset="0.6195" style="stop-color:#C5B9E3"/>
				<stop  offset="0.9305" style="stop-color:#9A84CE"/>
				<stop  offset="1" style="stop-color:#8F77C9"/>
			</linearGradient>
			<path class="st6" d="M798.2-130.5c-25.52-3.65-51.57-5.64-78.06-5.78c-0.99,0.01-1.97,0.06-2.96,0.07v306.38l45.46,13.42v349.96
				l-45.46,19.05v275.42v170.86c313.49,0,567.62-254.13,567.62-567.62C1284.79,145.3,1073.29-91.16,798.2-130.5z M821.14,631.53
				V99.47l138.28,71.37v356.34L821.14,631.53z"/>
		</g>
		<g>
			<path class="st7" d="M850.27,604.63H177.9c-5.95,0-10.76,4.82-10.76,10.76s4.82,10.76,10.76,10.76h19.05v257.52
				c0,5.95,4.82,10.76,10.76,10.76s10.76-4.82,10.76-10.76l0.16-257.52h539.65l49.76,257.52c0,5.95,4.82,10.76,10.76,10.76
				c5.95,0,10.76-4.82,10.76-10.76l3.13-257.52h17.57c5.95,0,10.76-4.82,10.76-10.76S856.22,604.63,850.27,604.63L850.27,604.63z"/>
			<path class="st8" d="M294.45,556.67v45.59H180.24c-12.59,0.44-23.15-9.41-23.59-22c-0.44-12.59,9.41-23.15,22-23.59
				c0.53-0.02,1.06-0.02,1.59,0H294.45z"/>
			<path class="st9" d="M297.25,601.9c0,0.97-0.79,1.75-1.75,1.75H178.21c-13.27-0.01-24.01-10.78-23.99-24.04
				c0.01-13.25,10.75-23.98,23.99-23.99H295.5c0.97,0,1.76,0.78,1.76,1.75c0,0.97-0.78,1.76-1.75,1.76c0,0-0.01,0-0.01,0H178.21
				c-11.33,0.02-20.5,9.22-20.48,20.55c0.02,11.3,9.18,20.46,20.48,20.48H295.5C296.47,600.15,297.25,600.93,297.25,601.9z"/>
			<path class="st10" d="M294.45,567.19H171.72c-0.19,0-0.35-0.15-0.35-0.35s0.15-0.35,0.35-0.35l0,0h122.74
				c0.19,0,0.35,0.16,0.35,0.35C294.8,567.03,294.64,567.18,294.45,567.19z"/>
			<path class="st10" d="M294.45,575.6H171.72c-0.19,0-0.35-0.15-0.35-0.35c0-0.19,0.15-0.35,0.35-0.35l0,0h122.74
				c0.19,0,0.35,0.16,0.35,0.35C294.8,575.45,294.64,575.6,294.45,575.6z"/>
			<path class="st10" d="M294.45,584.02H171.72c-0.19,0-0.35-0.15-0.35-0.35c0-0.19,0.15-0.35,0.35-0.35l0,0h122.74
				c0.19,0,0.35,0.16,0.35,0.35C294.8,583.86,294.64,584.02,294.45,584.02z"/>
			<path class="st10" d="M294.45,592.43H171.72c-0.19,0-0.35-0.15-0.35-0.35c0-0.19,0.15-0.35,0.35-0.35h122.74
				c0.19,0,0.35,0.16,0.35,0.35C294.8,592.28,294.64,592.43,294.45,592.43z"/>
			<path class="st8" d="M272.92,508.64v45.59H158.71c-12.59,0.44-23.15-9.41-23.59-22c-0.44-12.59,9.41-23.15,22-23.59
				c0.53-0.02,1.06-0.02,1.59,0H272.92z"/>
			<path class="st11" d="M275.73,553.87c0,0.97-0.79,1.75-1.75,1.75H156.68c-13.27-0.01-24.02-10.76-24.01-24.03
				c0.01-13.26,10.75-24.01,24.01-24.01h117.29c0.97,0,1.75,0.78,1.75,1.75s-0.79,1.75-1.75,1.75H156.68
				c-11.33,0.01-20.5,9.2-20.49,20.53c0.01,11.31,9.18,20.48,20.49,20.49h117.29C274.94,552.12,275.72,552.91,275.73,553.87z"/>
			<path class="st10" d="M272.92,519.16H150.19c-0.19,0-0.35-0.15-0.35-0.35c0-0.19,0.15-0.35,0.35-0.35l0,0h122.74
				c0.19,0,0.35,0.16,0.35,0.35C273.27,519,273.11,519.16,272.92,519.16z"/>
			<path class="st10" d="M272.92,527.58H150.19c-0.19,0-0.35-0.15-0.35-0.35c0-0.19,0.15-0.35,0.35-0.35l0,0h122.74
				c0.19,0,0.35,0.16,0.35,0.35C273.27,527.42,273.11,527.57,272.92,527.58z"/>
			<path class="st10" d="M272.92,535.99H150.19c-0.19,0-0.35-0.15-0.35-0.35s0.15-0.35,0.35-0.35l0,0h122.74
				c0.19,0,0.35,0.16,0.35,0.35C273.27,535.83,273.11,535.99,272.92,535.99z"/>
			<path class="st10" d="M272.92,544.41H150.19c-0.19,0-0.35-0.15-0.35-0.35c0-0.19,0.15-0.35,0.35-0.35l0,0h122.74
				c0.19,0,0.35,0.16,0.35,0.35C273.27,544.25,273.11,544.41,272.92,544.41z"/>
			<path class="st10" d="M405.78,765.94v-39.75c0-3.66-2.97-6.62-6.62-6.62h-150.7c-3.66,0-6.62,2.97-6.62,6.62v39.75H405.78z"/>
			<rect x="241.83" y="780.84" class="st10" width="163.95" height="51.34"/>
			<path class="st10" d="M241.83,847.09v39.75c0,3.66,2.97,6.62,6.62,6.62h150.7c3.66,0,6.62-2.97,6.62-6.62v-39.75H241.83z"/>
			<circle class="st12" cx="322.97" cy="744.41" r="4.97"/>
			<circle class="st12" cx="322.97" cy="810.65" r="4.97"/>
			<circle class="st12" cx="323.24" cy="875.49" r="4.97"/>
			<path class="st8" d="M387.19,674.25v45.59H272.98c-12.59,0.44-23.15-9.41-23.59-22c-0.44-12.59,9.41-23.15,22-23.59
				c0.53-0.02,1.06-0.02,1.59,0H387.19z"/>
			<path class="st11" d="M390,719.48c0,0.97-0.79,1.75-1.75,1.75H270.95c-13.27,0.01-24.03-10.74-24.03-24.01
				c-0.01-13.27,10.74-24.03,24.01-24.03l0,0h117.32c0.97,0,1.76,0.78,1.76,1.75c0,0.97-0.78,1.76-1.75,1.76c0,0-0.01,0-0.01,0
				H270.95c-11.33,0.01-20.5,9.21-20.49,20.54c0.01,11.31,9.18,20.47,20.49,20.49h117.29C389.21,717.73,390,718.51,390,719.48z"/>
			<path class="st10" d="M387.19,684.77H264.46c-0.19,0-0.35-0.15-0.35-0.35c0-0.19,0.15-0.35,0.35-0.35l0,0h122.74
				c0.19,0,0.35,0.16,0.35,0.35C387.54,684.61,387.38,684.77,387.19,684.77L387.19,684.77z"/>
			<path class="st10" d="M387.19,693.18H264.46c-0.19,0-0.35-0.15-0.35-0.35c0-0.19,0.15-0.35,0.35-0.35l0,0h122.74
				c0.19,0,0.35,0.16,0.35,0.35C387.54,693.03,387.38,693.18,387.19,693.18L387.19,693.18z"/>
			<path class="st10" d="M387.19,701.6H264.46c-0.19,0-0.35-0.15-0.35-0.35c0-0.19,0.15-0.35,0.35-0.35h122.74
				c0.19,0,0.35,0.16,0.35,0.35C387.54,701.44,387.38,701.6,387.19,701.6L387.19,701.6z"/>
			<path class="st10" d="M387.19,710.02H264.46c-0.19,0-0.35-0.15-0.35-0.35s0.15-0.35,0.35-0.35l0,0h122.74
				c0.19,0,0.35,0.16,0.35,0.35C387.54,709.86,387.38,710.01,387.19,710.02L387.19,710.02z"/>
			<path class="st11" d="M253.06,493.43h-52.03c-0.49,0-0.98,0.11-1.42,0.33l-13.13,6.57c-1.22,0.52-1.78,1.92-1.27,3.14
				c0.24,0.57,0.7,1.02,1.27,1.27l13.13,6.57c0.44,0.22,0.93,0.33,1.42,0.33h52.03c1.49,0.09,2.78-1.04,2.88-2.53v-13.15
				C255.84,494.48,254.55,493.35,253.06,493.43z"/>
			<path class="st9" d="M255.94,495.97v13.15c-0.11,1.49-1.39,2.62-2.88,2.53h-10.37v-18.22h10.37
				C254.55,493.35,255.84,494.48,255.94,495.97z"/>
			<path class="st13" d="M547.49,603.6l-5.49-2.31l-3.77-27.54h-50.19l-4.09,27.43l-4.92,2.46c-0.58,0.29-0.81,0.99-0.52,1.57
				c0.2,0.4,0.6,0.65,1.04,0.65h67.48c0.64,0,1.17-0.52,1.17-1.17C548.2,604.2,547.92,603.78,547.49,603.6z"/>
			<path class="st10" d="M636.68,577.41H390.14c-2.69-0.01-4.87-2.19-4.87-4.88v-34.77h256.29v34.77
				C641.55,575.22,639.37,577.4,636.68,577.41z"/>
			<path class="st11" d="M641.81,554.19H385.04V405.43c0-3.25,2.64-5.88,5.89-5.89h245c3.25,0,5.88,2.64,5.89,5.89L641.81,554.19z"
				/>
			<path class="st12" d="M626.47,543.39h-226.1c-2.51,0-4.54-2.03-4.54-4.54V414.88c0-2.51,2.03-4.54,4.54-4.54h226.1
				c2.51,0,4.54,2.03,4.54,4.54v123.97C631.01,541.36,628.98,543.39,626.47,543.39z"/>
			<path class="st14" d="M566.92,587.13c5.51-5.09,14.11-4.75,19.21,0.76c0.54,0.59,1.03,1.22,1.46,1.9l30.58-5.44l7.84,17.78
				l-43.3,7.07c-6.61,3.64-14.92,1.23-18.56-5.39C561.11,598.29,562.26,591.39,566.92,587.13z"/>
			<path class="st9" d="M595.24,609.84l31.88-0.4l4.04-0.05l64.87-0.82c0,0,17.62-16.81,32.95-34.11l-2.15-15.55
				c-2.1-15.26-9.67-29.24-21.3-39.34c-21.97,14.68-34.71,43.73-34.71,43.73l-40.22,9.62l-4.02,0.96l-24.99,5.97L595.24,609.84z"/>
			<path class="st15" d="M758.45,705.41h-59.51c0,2.55-65.06,4.62-65.06,4.62c-1.44,1.08-2.74,2.32-3.9,3.7
				c-3.47,4.14-5.37,9.38-5.36,14.78v3.7c0,12.75,10.34,23.09,23.1,23.1h110.73c12.75-0.01,23.09-10.35,23.1-23.1v-3.7
				C781.53,715.76,771.2,705.43,758.45,705.41z"/>
			<rect x="691.15" y="754.39" class="st15" width="24.02" height="138.66"/>
			<path class="st15" d="M622.78,892.2c0,2.6,36.4,1,81.31,1s81.31,1.59,81.31-1c0-2.6-36.4-23.18-81.31-23.18
				S622.78,889.6,622.78,892.2z"/>
			<polygon class="st14" points="606.64,876.36 588.76,876.36 580.26,807.4 606.65,807.4 			"/>
			<path class="st16" d="M611.2,893.69l-57.65,0v-0.73c0-12.39,10.05-22.44,22.44-22.44h0l35.21,0L611.2,893.69z"/>
			<polygon class="st14" points="553.8,876.36 535.92,876.36 527.42,807.4 553.8,807.4 			"/>
			<path class="st16" d="M558.36,893.69l-57.65,0v-0.73c0-12.39,10.05-22.44,22.44-22.44h0l35.21,0L558.36,893.69z"/>
			<circle class="st14" cx="713.95" cy="448.27" r="31.09"/>
			<path class="st16" d="M764.26,661.25c0,0,10.43,55.15-29.25,62.18c-39.68,7.02-96.97,11.96-96.97,11.96l-25.73,120.02
				l-34.56-3.09c0,0,4.6-144.48,15.9-155.79s82.75-45.15,82.75-45.15L764.26,661.25z"/>
			<path class="st16" d="M686.76,638.14l-17.36,17.41c0,0-125.32,20.19-130.16,49.13c-7.3,43.7-15.92,138.73-15.92,138.73
				l37.68-2.83l14.78-108.02l60.29-13.71l68.59-37.38L686.76,638.14z"/>
			<path class="st16" d="M743.86,429.71c-3.07-5.79-6.97-17.33-13.16-19.47c-3.44-1.14-6.99-1.9-10.6-2.26l-10.53,4.05l5.73-4.46
				c-1.12-0.07-2.23-0.12-3.34-0.16l-7.1,2.73l3.63-2.83c-6.62-0.07-13.46,0.62-18.59,4.65c-4.37,3.44-8.71,16.46-9.41,21.97
				c-0.75,5.28-0.49,10.65,0.77,15.83l1.8,1.71c0.63-1.44,1.1-2.95,1.41-4.49c1.3-5.83,5-10.85,10.18-13.82l0.1-0.06
				c3.02-1.7,6.68-1.62,10.14-1.5l16.43,0.59c3.95,0.14,8.21,0.39,11.29,2.87c1.96,1.83,3.5,4.06,4.51,6.54
				c1.53,3.09,4.52,14.75,4.52,14.75s1.69-2.2,2.5-0.56c1.3-4.27,2.09-8.69,2.36-13.15C746.78,438.2,745.86,433.73,743.86,429.71z"
				/>
			<path class="st14" d="M852.59,461.92c-7.49,0.49-13.16,6.97-12.67,14.46c0.05,0.8,0.18,1.59,0.37,2.37l-25,18.44l7.5,17.92
				l34.94-26.54c7.19-2.29,11.16-9.98,8.87-17.17C864.68,465.38,858.89,461.46,852.59,461.92L852.59,461.92z"/>
			<path class="st9" d="M848.56,499.56l-62.67,69.6c0,0-29.97-9.59-53.14-19.99l-10.41-31.98c-2.42-7.42-3.45-15.22-3.04-23.01
				c32.13-8.55,69.5,23.26,69.5,23.26l46.91-36.74L848.56,499.56z"/>
			<path class="st9" d="M702.34,666.39c-11.18-3.86-22.74-7.86-35.21-9.35l-0.54-0.06l0.15-0.52c12.91-45.32,9.69-74.32,3.36-117.87
				c-2.76-19.29,7.5-38.1,25.22-46.22l0.08-0.03l35.61-2.26l0.08,0l25.9,7.62c7.66,2.27,12.86,9.37,12.72,17.36
				c-0.28,14.32,0.31,30.31,0.94,47.24c1.41,37.98,2.88,77.25-5.42,102.73l-0.04,0.13l-0.11,0.09c-7.62,6.21-17.18,9.57-27.01,9.49
				C726.45,674.72,714.58,670.62,702.34,666.39z"/>
			<path class="st10" d="M960.89,896.69H15.16c-0.91,0-1.66-0.74-1.66-1.66s0.74-1.66,1.66-1.66h945.74c0.91,0,1.66,0.74,1.66,1.66
				S961.81,896.69,960.89,896.69z"/>
		</g>
	</g>
</g>
</svg>
