<?xml version="1.0" encoding="utf-8"?>
<!-- Generator: Adobe Illustrator 23.0.6, SVG Export Plug-In . SVG Version: 6.00 Build 0)  -->
<svg version="1.1" id="Layer_1" xmlns="http://www.w3.org/2000/svg" xmlns:xlink="http://www.w3.org/1999/xlink" x="0px" y="0px"
	 viewBox="0 0 412.75 1002.54" style="enable-background:new 0 0 412.75 1002.54;" xml:space="preserve">
<style type="text/css">
	.st0{fill:#5D27B2;}
	.st1{fill:#EC486C;}
	.st2{fill:#FFCCD1;}
	.st3{fill:#49C0B1;}
	.st4{fill:#DCF2EF;}
	.st5{fill:#FFC731;}
	.st6{fill:#FFF4DD;}
	.st7{fill:#392788;}
	.st8{font-family:'CircularStd-Bold';}
	.st9{font-size:27.792px;}
	.st10{fill:#A547E8;}
	.st11{fill:#FF9200;}
	.st12{fill:#96D200;}
	.st13{fill:#00A9FF;}
	.st14{fill:#F6F6F6;}
	.st15{fill:#F2F0F7;}
	.st16{fill:#9AA0AF;}
</style>
<rect x="42.15" y="30.52" class="st0" width="56.94" height="53.87"/>
<rect x="42.15" y="98.31" class="st1" width="56.94" height="53.87"/>
<rect x="42.15" y="166.1" class="st2" width="56.94" height="53.87"/>
<rect x="42.15" y="233.88" class="st3" width="56.94" height="53.87"/>
<rect x="42.15" y="301.67" class="st4" width="56.94" height="53.87"/>
<rect x="42.15" y="369.45" class="st5" width="56.94" height="53.87"/>
<rect x="42.15" y="437.24" class="st6" width="56.94" height="53.87"/>
<g>
	<text transform="matrix(1 0 0 1 115 69.9307)" class="st7 st8 st9">#5d27b2</text>
</g>
<g>
	<text transform="matrix(1 0 0 1 115 134.2677)" class="st7 st8 st9">#ec486c</text>
</g>
<g>
	<text transform="matrix(1 0 0 1 115 199.2677)" class="st7 st8 st9">#ec486c</text>
</g>
<g>
	<text transform="matrix(1 0 0 1 115 264.2677)" class="st7 st8 st9">#49c0b1</text>
</g>
<g>
	<text transform="matrix(1 0 0 1 115 329.2677)" class="st7 st8 st9">#dcf2ef</text>
</g>
<g>
	<text transform="matrix(1 0 0 1 115 408.8884)" class="st7 st8 st9">#ffc731</text>
</g>
<g>
	<text transform="matrix(1 0 0 1 115 473.8884)" class="st7 st8 st9">#fff4dd</text>
</g>
<rect x="42.15" y="505.02" class="st10" width="56.94" height="53.87"/>
<rect x="42.15" y="572.81" class="st11" width="56.94" height="53.87"/>
<rect x="42.15" y="640.6" class="st12" width="56.94" height="53.87"/>
<rect x="42.15" y="708.38" class="st13" width="56.94" height="53.87"/>
<g>
	<text transform="matrix(1 0 0 1 115 535.4106)" class="st7 st8 st9">#a547e8</text>
</g>
<g>
	<text transform="matrix(1 0 0 1 115 600.4106)" class="st7 st8 st9">#ff9200</text>
</g>
<g>
	<text transform="matrix(1 0 0 1 115 680.0313)" class="st7 st8 st9">#96d200</text>
</g>
<g>
	<text transform="matrix(1 0 0 1 115 745.0313)" class="st7 st8 st9">#00a9ff</text>
</g>
<rect x="42.15" y="776.17" class="st14" width="56.94" height="53.87"/>
<g>
	<text transform="matrix(1 0 0 1 115 812.817)" class="st7 st8 st9">#f6f6f6</text>
</g>
<rect x="42.15" y="843.95" class="st15" width="56.94" height="53.87"/>
<g>
	<text transform="matrix(1 0 0 1 115 880.6028)" class="st7 st8 st9">#f2f0f7</text>
</g>
<rect x="42.15" y="911.74" class="st16" width="56.94" height="53.87"/>
<g>
	<text transform="matrix(1 0 0 1 115 948.3885)" class="st7 st8 st9">#9aa0af</text>
</g>
</svg>
