<?xml version="1.0" encoding="utf-8"?>
<!-- Generator: Adobe Illustrator 23.0.6, SVG Export Plug-In . SVG Version: 6.00 Build 0)  -->
<svg version="1.1" id="Layer_1" xmlns="http://www.w3.org/2000/svg" xmlns:xlink="http://www.w3.org/1999/xlink" x="0px" y="0px"
	 viewBox="0 0 306.58 320.52" style="enable-background:new 0 0 306.58 320.52;" xml:space="preserve">
<style type="text/css">
	.st0{fill:#9AA0AF;}
</style>
<path class="st0" d="M98.63,257.1c-3,0-5.98-0.94-8.53-2.79c-4.51-3.28-6.73-8.73-5.79-14.22l9.14-53.32l-38.74-37.75
	c-4-3.88-5.4-9.6-3.67-14.9c1.73-5.31,6.22-9.1,11.75-9.9l53.52-7.77l23.93-48.5c2.47-5,7.46-8.1,13.04-8.1
	c5.57,0,10.57,3.11,13.03,8.1l23.94,48.5l53.52,7.78c5.52,0.79,10.01,4.58,11.74,9.89c1.73,5.31,0.32,11.02-3.68,14.91l-38.73,37.74
	l9.14,53.32c0.94,5.5-1.28,10.95-5.79,14.22c-4.51,3.27-10.37,3.7-15.31,1.1l-47.87-25.16l-47.89,25.16
	C103.26,256.55,100.94,257.1,98.63,257.1z M75.2,141.97l33.57,32.73c3.43,3.32,5,8.14,4.17,12.88l-7.92,46.19l41.51-21.81
	c4.21-2.23,9.28-2.24,13.52-0.01l41.51,21.82l-7.92-46.21c-0.82-4.7,0.75-9.52,4.17-12.86l33.57-32.73l-46.39-6.74
	c-4.76-0.71-8.84-3.67-10.95-7.95l-20.75-42.04l-20.75,42.04c-2.14,4.3-6.22,7.25-10.92,7.95L75.2,141.97z M95.26,188.54
	c0.01,0.01,0.02,0.02,0.03,0.03L95.26,188.54z M93.88,184.29c0,0.01-0.01,0.01-0.01,0.02L93.88,184.29z M212.7,184.27v0.02
	C212.7,184.28,212.7,184.27,212.7,184.27z M148.99,76.5L148.99,76.5L148.99,76.5z"/>
</svg>
