<?xml version="1.0" encoding="utf-8"?>
<!-- Generator: Adobe Illustrator 23.0.6, SVG Export Plug-In . SVG Version: 6.00 Build 0)  -->
<svg version="1.1" id="Layer_1" xmlns="http://www.w3.org/2000/svg" xmlns:xlink="http://www.w3.org/1999/xlink" x="0px" y="0px"
	 viewBox="0 0 306.58 320.52" style="enable-background:new 0 0 306.58 320.52;" xml:space="preserve">
<style type="text/css">
	.st0{fill:#9AA0AF;}
</style>
<g id="InVJ5Y.tif_1_">
	<g>
		<g>
			<path class="st0" d="M254.89,281.16c-80.58,0-122.48,0-203.2,0c0-48.82,0-97.64,0-146.46c20.18,0,21.03,0,41.42,0
				c0-32.01,0-63.63,0-95.34c40.18,0,80.15,0,120.41,0c0,31.74,0,63.42,0,95.38c20.38,0,21.13,0,41.37,0
				C254.89,183.73,254.89,232.44,254.89,281.16z M65.94,266.81c71.26,0,103.62,0,174.64,0c0-19.12,0-38.06,0-57.01
				c-71.18,0-103.53,0-174.64,0C65.94,228.88,65.94,247.76,65.94,266.81z M199.16,164.89c0-37.26,0-74.27,0-111.31
				c-30.7,0-61.2,0-91.78,0c0,37.15,0,74.17,0,111.31C138.02,164.89,168.52,164.89,199.16,164.89z M65.98,195.25
				c71.22,0,103.57,0,174.63,0c0-15.5,0-30.82,0-46.22c-15.49,0-11.53,0-26.87,0c0,5.38,0,10.6,0,16.03c5.92,0,11.63,0,17.5,0
				c0,4.79,0,9.36,0,13.96c-52.08,0-103.98,0-155.9,0c0-4.7,0-9.23,0-14.03c5.93,0,11.72,0,17.54,0c0-5.5,0-10.72,0-16
				c-15.49,0-11.46,0-26.89,0C65.98,164.42,65.98,179.74,65.98,195.25z"/>
			<path class="st0" d="M144.05,132c-4.61,0-9.09,0-13.89,0c0.19-7.72,3.2-13.94,9.32-18.41c7.83-5.71,16.34-6.35,24.86-1.78
				c7.81,4.18,11.66,11.07,12.15,20.1c-4.74,0-9.27,0-14.03,0c-0.46-2.91-1.46-5.78-4.29-7.28c-1.6-0.84-3.55-1.45-5.34-1.44
				C148.25,123.23,145.43,126.2,144.05,132z"/>
			<path class="st0" d="M130.27,83.23c4.67,0,9.2,0,13.88,0c0,4.62,0,9.16,0,13.88c-4.55,0-9.14,0-13.88,0
				C130.27,92.56,130.27,88.03,130.27,83.23z"/>
			<path class="st0" d="M176.29,97.18c-4.62,0-9.15,0-13.85,0c0-4.64,0-9.23,0-13.93c4.62,0,9.15,0,13.85,0
				C176.29,87.87,176.29,92.46,176.29,97.18z"/>
		</g>
	</g>
</g>
</svg>
