<?xml version="1.0" encoding="utf-8"?>
<!-- Generator: Adobe Illustrator 23.0.6, SVG Export Plug-In . SVG Version: 6.00 Build 0)  -->
<svg version="1.1" id="Layer_1" xmlns="http://www.w3.org/2000/svg" xmlns:xlink="http://www.w3.org/1999/xlink" x="0px" y="0px"
	 viewBox="0 0 306.58 320.52" style="enable-background:new 0 0 306.58 320.52;" xml:space="preserve">
<style type="text/css">
	.st0{fill:#9AA0AF;}
</style>
<g id="VoiJno.tif_1_">
	<g>
		<g>
			<path class="st0" d="M189.26,56.17c4.83,2.06,6.43,5.73,6.42,10.91c-0.12,49.43-0.08,98.87-0.05,148.3c0,2.94-0.44,5.65-2.71,7.7
				c-3.03,2.74-6.4,2.82-10.07,1.28c-14.51-6.11-29.06-12.14-43.6-18.2c-0.8-0.33-1.61-0.63-2.74-1.07
				c-0.06,1.15-0.14,2.06-0.14,2.97c-0.01,11.1,0.01,22.21-0.01,33.31c-0.02,10.72-7.19,17.86-17.93,17.88
				c-5.2,0.01-10.4,0.04-15.6-0.01c-9.87-0.09-17.2-7.37-17.23-17.24c-0.05-18.59-0.06-37.19,0.04-55.78
				c0.01-2.54-0.96-3.18-3.22-3.16c-7.14,0.07-14.28,0.05-21.41,0.02c-15.17-0.06-26.14-11.03-26.19-26.2
				c-0.03-10.75-0.03-21.5,0-32.25c0.05-15.16,11.04-26.11,26.21-26.17c4.76-0.02,9.53-0.23,14.27,0.06
				c5.86,0.36,11.18-0.99,16.57-3.27c30.71-12.97,61.52-25.73,92.29-38.56c0.31-0.13,0.57-0.36,0.86-0.54
				C186.44,56.17,187.85,56.17,189.26,56.17z M178.61,77.45c-1.24,0.49-2.14,0.82-3.02,1.19c-28.42,11.84-56.82,23.7-85.27,35.47
				c-1.97,0.81-4.24,1.21-6.38,1.25c-7.57,0.15-15.15,0.05-22.73,0.06c-6.06,0.01-9.45,3.42-9.46,9.52
				c-0.01,10.57-0.01,21.14,0,31.72c0.01,6.12,3.37,9.51,9.45,9.53c7.58,0.02,15.16-0.09,22.73,0.06c2.14,0.04,4.41,0.43,6.38,1.25
				c23.9,9.87,47.76,19.85,71.62,29.79c5.49,2.29,11,4.56,16.68,6.91C178.61,161.82,178.61,119.81,178.61,77.45z M119.45,242.22
				c0-14.47,0.01-28.72-0.04-42.97c0-0.57-0.41-1.46-0.86-1.66c-5.22-2.26-10.48-4.41-15.89-6.66c0,17.27,0,34.22,0,51.29
				C108.23,242.22,113.65,242.22,119.45,242.22z"/>
			<path class="st0" d="M256.96,56.17c0.36,0.22,0.71,0.47,1.09,0.64c3.27,1.48,5.14,4.02,5.22,7.6c0.08,3.57-1.61,6.25-4.82,7.87
				c-7.62,3.84-15.25,7.64-22.88,11.45c-3.38,1.69-6.75,3.42-10.15,5.08c-4.82,2.35-9.81,0.87-11.97-3.5
				c-2.2-4.44-0.4-9.22,4.43-11.65c11.61-5.84,23.24-11.67,34.85-17.5C254.14,56.17,255.55,56.17,256.96,56.17z"/>
			<path class="st0" d="M271.77,142.91c-2.08,4.79-5.71,6.55-10.91,6.42c-10.13-0.25-20.27-0.06-30.4-0.08
				c-5.6-0.01-9.45-3.48-9.45-8.47c0-5.01,3.82-8.44,9.45-8.45c10.13-0.01,20.27,0.18,30.4-0.08c5.21-0.13,8.83,1.64,10.91,6.42
				C271.77,140.09,271.77,141.5,271.77,142.91z"/>
			<path class="st0" d="M263.3,216.3c0.02,6.87-6.4,10.91-12.21,8.19c-5.57-2.61-11.03-5.46-16.54-8.21
				c-5.58-2.79-11.18-5.56-16.75-8.37c-4.77-2.41-6.56-7.28-4.32-11.69c2.17-4.29,7.08-5.82,11.75-3.51
				c11.03,5.46,22.02,11,33.04,16.5C261.49,210.8,263.08,213.44,263.3,216.3z"/>
		</g>
	</g>
</g>
</svg>
