<?xml version="1.0" encoding="utf-8"?>
<!-- Generator: Adobe Illustrator 23.0.6, SVG Export Plug-In . SVG Version: 6.00 Build 0)  -->
<svg version="1.1" id="Layer_1" xmlns="http://www.w3.org/2000/svg" xmlns:xlink="http://www.w3.org/1999/xlink" x="0px" y="0px"
	 viewBox="0 0 505.66 485.75" style="enable-background:new 0 0 505.66 485.75;" xml:space="preserve">
<style type="text/css">
	.st0{fill:#392788;}
</style>
<g>
	<path class="st0" d="M190.85,243.43c-62.18,0-112.75-50.57-112.75-112.75S128.67,17.92,190.85,17.92S303.6,68.49,303.6,130.67
		S253.03,243.43,190.85,243.43z M190.85,51.07c-43.9,0-79.6,35.7-79.6,79.6s35.7,79.6,79.6,79.6s79.6-35.7,79.6-79.6
		S234.75,51.07,190.85,51.07z"/>
	<path class="st0" d="M60.49,379.12H27.33c0-90.15,73.36-163.52,163.52-163.52c35.76,0,69.74,11.33,98.23,32.81l-19.94,26.46
		c-22.71-17.07-49.77-26.12-78.28-26.12C118.98,248.76,60.49,307.25,60.49,379.12z"/>
	<path class="st0" d="M352.21,467.83c-69.54,0-126.11-56.57-126.11-126.11S282.67,215.6,352.21,215.6s126.11,56.57,126.11,126.11
		S421.75,467.83,352.21,467.83z M352.21,248.76c-51.26,0-92.96,41.7-92.96,92.96s41.7,92.96,92.96,92.96s92.96-41.7,92.96-92.96
		S403.47,248.76,352.21,248.76z"/>
	<g>
		<path class="st0" d="M337.33,324.83v-51.35h29.5v51.35h50.04v28.7h-50.04v51.62h-29.5v-51.62h-49.77v-28.7H337.33z"/>
	</g>
</g>
</svg>
