<?xml version="1.0" encoding="utf-8"?>
<!-- Generator: Adobe Illustrator 23.0.6, SVG Export Plug-In . SVG Version: 6.00 Build 0)  -->
<svg version="1.1" id="Layer_1" xmlns="http://www.w3.org/2000/svg" xmlns:xlink="http://www.w3.org/1999/xlink" x="0px" y="0px"
	 viewBox="0 0 306.58 320.52" style="enable-background:new 0 0 306.58 320.52;" xml:space="preserve">
<style type="text/css">
	.st0{fill:#9AA0AF;}
</style>
<g id="XvyKMT.tif_1_">
	<g>
		<g>
			<g>
				<path class="st0" d="M51.64,210.25c0-50.82,0-101.65,0-152.47c67.77,0,135.53,0,203.3,0c0,50.81,0,101.61,0,152.65
					c-1.03,0-1.88,0-2.72,0c-22.7,0-45.4-0.02-68.1,0.05c-1.29,0-2.76,0.42-3.85,1.11c-25.26,15.97-50.48,32.01-75.71,48.04
					c-0.58,0.37-1.18,0.71-2.13,1.27c0-17.05,0-33.68,0-50.47c-1.01,0-1.8,0-2.58,0c-15.29,0-30.57,0-45.86-0.01
					C53.21,210.41,52.43,210.31,51.64,210.25z M114.52,198.53c0,13.6,0,26.96,0,40.64c0.93-0.58,1.54-0.96,2.15-1.34
					c20.03-12.73,40.06-25.47,60.13-38.14c1.09-0.69,2.56-1.12,3.85-1.12c19.92-0.07,39.83-0.05,59.75-0.05c0.83,0,1.66,0,2.53,0
					c0-43.01,0-85.72,0-128.52c-59.82,0-119.53,0-179.27,0c0,42.86,0,85.58,0,128.53C80.6,198.53,97.43,198.53,114.52,198.53z"/>
				<path class="st0" d="M100.02,265.16l-0.16-52.32L54,212.83c-0.61,0-1.23-0.06-1.83-0.1l-2.94-0.23V55.36h208.13v157.48h-17.51
					c-18.54,0-37.14,0-55.71,0.05c-0.85,0-1.87,0.29-2.54,0.73c-20.09,12.69-40.12,25.43-60.17,38.15L100.02,265.16z M54.06,207.99
					l50.8,0.01v48.56l13.98-8.88c20.04-12.72,40.08-25.46,60.15-38.14c1.45-0.94,3.37-1.49,5.14-1.49
					c18.57-0.05,37.16-0.05,55.72-0.05h12.68V60.19H54.06V207.99z M112.19,243.44l-0.09-4.28v-38.22H61.24V67.58h184.1v133.35
					h-15.81c-16.3,0-32.59,0-48.87,0.05c-0.83,0-1.86,0.3-2.58,0.76c-15.24,9.62-30.48,19.31-45.72,28.99L112.19,243.44z
					 M66.08,196.11h50.86v38.68l12.84-8.15c15.24-9.68,30.47-19.37,45.73-29c1.49-0.94,3.42-1.5,5.15-1.5
					c16.28-0.05,32.58-0.06,48.88-0.05h10.98V72.42H66.08V196.11z"/>
			</g>
			<g>
				<path class="st0" d="M104.27,111.83c5.48,0,10.76,0,16.05,0c3.37,0,6.75-0.07,10.12,0.03c1.4,0.04,2.27-0.38,3.12-1.52
					c4.78-6.5,9.62-12.95,14.5-19.38c0.45-0.6,1.31-1.25,1.98-1.26c7.94-0.09,15.88-0.05,23.82-0.04c0.24,0,0.49,0.1,0.87,0.18
					c-1.46,7.31-2.91,14.54-4.4,21.98c11.19,0,22.22,0,33.51,0c-0.88,4.02-1.7,7.8-2.55,11.59c-3.01,13.41-6.06,26.8-8.99,40.23
					c-0.35,1.6-0.99,1.95-2.5,1.95c-27.85-0.04-55.71-0.03-83.56-0.01c-1.38,0-2.14-0.12-2.13-1.88
					c0.07-16.74,0.04-33.48,0.05-50.22C104.16,113.02,104.22,112.57,104.27,111.83z M160.17,101.78c-4.74-0.73-4.87-0.67-7.5,2.85
					c-3.41,4.55-6.86,9.08-10.18,13.69c-0.64,0.88-1.09,2.13-1.1,3.21c-0.08,9.99-0.05,19.98-0.04,29.97c0,0.64,0.05,1.29,0.09,1.97
					c0.37,0.07,0.62,0.15,0.87,0.15c12.9,0.01,25.8,0,38.7,0.04c1.13,0,1.46-0.52,1.66-1.49c0.71-3.36,1.49-6.71,2.24-10.06
					c1.35-6.05,2.69-12.1,4.09-18.4c-11.15,0-22.09,0-33.2,0C157.29,116.24,158.73,109.02,160.17,101.78z M129.28,153.51
					c0-9.98,0-19.79,0-29.6c-4.46,0-8.77,0-13.1,0c0,9.94,0,19.7,0,29.6C120.57,153.51,124.84,153.51,129.28,153.51z"/>
				<path class="st0" d="M189.81,168c-27.87-0.03-55.71-0.04-83.56-0.01c-0.87,0-2.33,0-3.44-1.11c-1.11-1.13-1.11-2.69-1.11-3.2
					c0.05-12.88,0.05-25.75,0.04-38.62v-11.59c0-0.34,0.03-0.67,0.07-1.09l0.2-2.98l21.14-0.01c2.47-0.03,4.92-0.03,7.38,0.05
					c0.65,0.07,0.73-0.04,1.09-0.54c4.79-6.52,9.63-12.98,14.53-19.41c0.78-1.02,2.27-2.21,3.91-2.21
					c6.79-0.09,13.6-0.07,20.42-0.06l4.53,0.18l2.21,0.59l-0.1,2.31l-3.83,19.09h33.57l-5.65,25.44
					c-2.19,9.77-4.39,19.53-6.53,29.32C193.92,167.61,191.54,168,189.81,168z M129.99,163.13c20.08,0,39.95,0.01,59.82,0.04
					c2.28-9.84,4.48-19.62,6.68-29.4l4.35-19.53h-33.46l4.44-22.12l-1.36-0.05c-6.79,0.01-13.59-0.01-20.38,0.06
					c-4.96,6.72-9.8,13.16-14.57,19.66c-1.3,1.77-2.9,2.6-5.12,2.5c-2.42-0.08-4.82-0.07-7.22-0.05l-16.59,0.01v10.82
					c0.01,12.69,0.01,25.38-0.04,38.07C114.4,163.13,122.22,163.13,129.99,163.13z M181.02,156.07c-0.01,0-0.03,0-0.04,0
					l-39.79-0.19l-1.82-0.4l-0.39-2.58c-0.03-0.48-0.06-0.94-0.06-1.42v-7.05c-0.01-7.64-0.02-15.29,0.05-22.93
					c0.01-1.54,0.6-3.26,1.55-4.6c2.54-3.52,5.15-6.99,7.75-10.46l2.46-3.27c3.19-4.27,4.18-4.67,9.81-3.8l2.49,0.39l-4.29,21.52
					h33.28L186.5,146c-0.5,2.23-1,4.45-1.48,6.68C184.42,155.62,182.27,156.07,181.02,156.07z M143.75,151.11l36.63,0.12
					c0.48-2.22,0.94-4.26,1.41-6.31l4.19-18.8h-33.13l4.43-22.23c-1.09,0.05-1.49,0.6-2.68,2.18l-2.47,3.29
					c-2.59,3.44-5.18,6.88-7.69,10.37c-0.37,0.51-0.64,1.28-0.64,1.81c-0.07,7.63-0.06,15.26-0.05,22.9V151.11z M131.7,155.92
					h-17.94v-34.43h17.94V155.92z M118.6,151.09h8.26v-24.76h-8.26V151.09z"/>
			</g>
		</g>
	</g>
</g>
</svg>
