<?xml version="1.0" encoding="utf-8"?>
<!-- Generator: Adobe Illustrator 23.0.6, SVG Export Plug-In . SVG Version: 6.00 Build 0)  -->
<svg version="1.1" id="Layer_1" xmlns="http://www.w3.org/2000/svg" xmlns:xlink="http://www.w3.org/1999/xlink" x="0px" y="0px"
	 viewBox="0 0 505.66 485.75" style="enable-background:new 0 0 505.66 485.75;" xml:space="preserve">
<style type="text/css">
	.st0{fill:#392788;stroke:#392788;stroke-width:0.25;stroke-miterlimit:10;}
</style>
<g id="UhoBNa.tif_5_">
	<g>
		<path class="st0" d="M225.21,17.92c18.49,0,36.98,0,55.47,0c0.77,0.3,1.52,0.73,2.32,0.88c22.35,4.02,34.29,18.26,34.39,41.07
			c0.01,3.24,0,6.49,0,10.16c3.58,0,6.08,0,8.58,0c26.68,0,53.35-0.14,80.03,0.05c23.18,0.17,39.48,15.14,40.43,37.85
			c0.72,17.19,0.37,34.44,0.12,51.66c-0.13,8.83-5.13,13.39-13.91,13.67c-3.87,0.12-7.75,0.02-11.94,0.02c0,3.64,0,6.15,0,8.66
			c0,94.73,0.01,148.29,0,243.02c0,27.35-15.55,42.87-43.01,42.87c-83.18,0.02-166.35,0.02-249.53,0
			c-27.42-0.01-42.94-15.54-42.94-42.94c-0.01-94.94,0-148.71,0-243.65c0-2.44,0-4.88,0-7.83c-10.9-0.34-22.69,2.36-26.39-11.77
			c0-18.49,0-36.98,0-55.47c0.24-0.57,0.56-1.11,0.72-1.7c6.4-24.88,18.69-34.43,44.34-34.43c25.59-0.01,51.18,0,76.78,0
			c2.43,0,4.86,0,7.89,0c0-5.28-0.1-9.65,0.02-14.01c0.48-17.43,12.51-32.33,29.36-36.44C220.34,18.98,222.78,18.47,225.21,17.92z
			 M111.19,173.68c-0.13,2.41-0.33,4.46-0.33,6.5c-0.02,95.34-0.02,149.51,0,244.85c0,12.65,4.35,16.91,17.11,16.92
			c83.16,0.01,166.32,0,249.48,0c13.53,0,17.58-4.07,17.58-17.72c0.01-94.92,0.01-148.67-0.01-243.59c0-2.24-0.19-4.47-0.3-6.95
			C299.96,173.68,205.8,173.68,111.19,173.68z M85.26,147.24c112.23,0,223.59,0,334.82,0c0.26-0.8,0.49-1.19,0.49-1.58
			c0.05-10.7,0.1-21.41,0.1-32.11c0.01-13.78-3.79-17.57-17.54-17.58c-82.71,0-165.42,0-248.13,0c-18.68,0-37.37-0.07-56.05,0.04
			c-7.92,0.05-13.41,4.62-13.6,11.87C85.03,120.86,85.26,133.85,85.26,147.24z M291.85,69.7c-0.24-5.34,0.1-10.58-0.86-15.57
			c-1.2-6.29-5.81-9.66-12.2-9.71c-17.19-0.15-34.38-0.16-51.56,0c-7.05,0.06-12.04,4.47-12.82,11.37c-0.51,4.48-0.1,9.07-0.1,13.91
			C240.04,69.7,265.14,69.7,291.85,69.7z"/>
		<path class="st0" d="M214.1,327.99c0.01,29.6,0.04,18.03-0.01,47.63c-0.01,7.88-3.46,12.8-9.69,14.35
			c-7.3,1.82-14.7-3.13-15.72-10.64c-0.28-2.07-0.18-4.19-0.18-6.29c-0.01-57.31-0.01-73.44-0.01-130.75c0-1.26-0.03-2.52,0.02-3.78
			c0.3-7.84,5.7-13.53,12.82-13.5c7.17,0.03,12.68,5.62,12.71,13.56C214.16,268.37,214.09,298.18,214.1,327.99z"/>
		<path class="st0" d="M317.39,328.02c0,29.6,0.04,18.03-0.02,47.63c-0.02,9.14-4.99,14.64-12.85,14.61
			c-6.42-0.03-11.73-4.6-12.53-10.96c-0.29-2.28-0.2-4.61-0.2-6.92c-0.01-56.89-0.01-72.61,0-129.49c0-2.1-0.07-4.21,0.14-6.29
			c0.67-6.58,6.27-11.62,12.72-11.59c6.47,0.04,12.17,5.06,12.58,11.71c0.37,6.07,0.17,12.17,0.17,18.26
			C317.39,279.32,317.39,303.67,317.39,328.02z"/>
	</g>
</g>
</svg>
