<?xml version="1.0" encoding="utf-8"?>
<!-- Generator: Adobe Illustrator 23.0.6, SVG Export Plug-In . SVG Version: 6.00 Build 0)  -->
<svg version="1.1" id="Layer_1" xmlns="http://www.w3.org/2000/svg" xmlns:xlink="http://www.w3.org/1999/xlink" x="0px" y="0px"
	 viewBox="0 0 453.9 485.75" style="enable-background:new 0 0 453.9 485.75;" xml:space="preserve">
<style type="text/css">
	.st0{fill:#392788;}
	.st1{fill:#FFFFFF;}
</style>
<g>
	<path class="st0" d="M349.37,430.41H117.4c-38.67,0-70.02-31.35-70.02-70.02V128.42c0-38.67,31.35-70.02,70.02-70.02h231.97
		c38.67,0,70.02,31.35,70.02,70.02v231.97C419.39,399.06,388.04,430.41,349.37,430.41z"/>
	<g>
		<g>
			<g id="T7UFWa.tif_10_">
				<g>
					<path class="st1" d="M326.66,121.51c4.75,0.11,8.75,1.8,12.06,5.1c4,3.99,8,7.99,11.99,11.98c8.33,8.34,8.36,17.89,0.06,26.18
						c-25.6,25.61-51.21,51.21-76.81,76.81c-9.34,9.34-18.73,18.63-27.99,28.06c-2.33,2.37-4.86,3.86-8.15,4.47
						c-10.31,1.92-20.58,4.08-30.88,6.07c-5.74,1.11-9.83-3.07-8.7-8.84c2.12-10.84,4.22-21.69,6.51-32.49
						c0.37-1.75,1.4-3.62,2.67-4.89c35.68-35.79,71.42-71.51,107.15-107.25C317.94,123.35,321.98,121.6,326.66,121.51z
						 M306.09,155.09c-0.62,0.75-1.13,1.47-1.75,2.08c-26.54,26.55-53.01,53.17-79.7,79.57c-4.3,4.25-7.43,8.58-7.91,14.76
						c-0.27,3.46-1.34,6.85-2.01,10.28c-0.13,0.66-0.11,1.35-0.16,2.14c0.6-0.04,1-0.02,1.37-0.09c6.08-1.21,12.16-2.36,18.21-3.7
						c1.06-0.23,2.09-1.07,2.89-1.87c28.14-28.1,56.26-56.22,84.38-84.34c0.6-0.6,1.18-1.24,1.73-1.81
						C317.47,166.46,311.97,160.96,306.09,155.09z M333.63,161.69c2.7-2.7,5.4-5.38,8.06-8.1c1.12-1.14,1.24-2.42,0.08-3.59
						c-4.42-4.46-8.86-8.9-13.31-13.32c-1.06-1.06-2.32-1.2-3.4-0.16c-2.84,2.75-5.59,5.59-8.27,8.29
						C322.43,150.46,327.92,155.96,333.63,161.69z"/>
				</g>
			</g>
			<g>
				<polygon class="st1" points="319.48,364.51 112.58,364.51 112.58,163.24 243.33,163.24 243.33,176.27 125.6,176.27 
					125.6,351.48 306.45,351.48 306.45,228.63 319.48,228.63 				"/>
				<path class="st1" d="M322.26,367.3H109.8V160.45h136.32v18.59H128.39V348.7h175.27V225.85h18.59V367.3z M115.36,361.73h201.33
					V231.41h-7.47v122.85h-186.4V173.48h117.73v-7.47H115.36V361.73z"/>
			</g>
		</g>
	</g>
</g>
</svg>
