<?xml version="1.0" encoding="utf-8"?>
<!-- Generator: Adobe Illustrator 23.0.6, SVG Export Plug-In . SVG Version: 6.00 Build 0)  -->
<svg version="1.1" id="Layer_1" xmlns="http://www.w3.org/2000/svg" xmlns:xlink="http://www.w3.org/1999/xlink" x="0px" y="0px"
	 viewBox="0 0 453.9 485.75" style="enable-background:new 0 0 453.9 485.75;" xml:space="preserve">
<style type="text/css">
	.st0{fill:#392788;}
	.st1{fill:#FFFFFF;}
</style>
<g>
	<g>
		<path class="st0" d="M341.98,430.43H111.92c-40.05,0-72.52-32.47-72.52-72.52V127.84c0-40.05,32.47-72.52,72.52-72.52h230.06
			c40.05,0,72.52,32.47,72.52,72.52v230.06C414.5,397.96,382.03,430.43,341.98,430.43z"/>
		<g id="oKR8iY.tif_1_">
			<g>
				<path class="st1" d="M290.53,376.21c-0.49-0.25-0.97-0.53-1.48-0.74c-4.81-2.06-7.52-6.75-6.6-11.45
					c0.98-5.02,5.08-8.34,10.55-8.36c12.17-0.04,24.34,0,36.51-0.02c7.09-0.01,10.17-3.09,10.18-10.18
					c0.02-11.83-0.01-23.66,0.01-35.49c0.01-6.33,3.06-10.52,8.37-11.57c5.01-0.99,9.35,1.8,11.76,7.56
					c0.08,0.2,0.29,0.34,0.43,0.51c0,14.81,0,29.63,0,44.44c-0.23,0.73-0.51,1.46-0.69,2.2c-2.7,11.14-9.42,18.52-20.44,21.88
					c-1.38,0.42-2.78,0.81-4.17,1.21C320.16,376.21,305.35,376.21,290.53,376.21z"/>
				<path class="st1" d="M360.27,179.31c-3.17,6.56-7.36,9.22-12.54,7.98c-5.53-1.32-8.03-5.33-8.03-12.89c0-11.16,0-22.32,0-33.48
					c0-7.98-2.86-10.78-10.96-10.78c-11.62,0-23.23,0.01-34.85-0.01c-6.98-0.01-11.57-4.09-11.56-10.23
					c0.01-6.08,4.68-10.25,11.6-10.27c11.96-0.03,23.91-0.03,35.87,0c15.85,0.04,26.54,8.75,29.98,24.37
					c0.07,0.31,0.32,0.58,0.49,0.87C360.27,149.69,360.27,164.5,360.27,179.31z"/>
				<path class="st1" d="M118.93,376.21c-1.73-0.49-3.48-0.92-5.19-1.46c-11.53-3.63-19.75-14.33-19.97-26.62
					c-0.23-13.09-0.13-26.19-0.04-39.28c0.04-6.07,4.55-10.56,10.24-10.57c5.9-0.01,10.19,4.49,10.22,10.88
					c0.05,11.61,0.01,23.23,0.02,34.84c0,9.15,2.54,11.64,11.81,11.64c11.27,0,22.55-0.01,33.82,0c6.4,0.01,10.53,2.99,11.6,8.35
					c1,5.01-1.8,9.37-7.56,11.78c-0.2,0.08-0.34,0.29-0.51,0.44C148.56,376.21,133.74,376.21,118.93,376.21z"/>
				<path class="st1" d="M175.32,258.6c6.37,0,12.75-0.05,19.12,0.01c9.8,0.09,16.74,7.02,16.79,16.83c0.06,12.63,0.06,25.27,0,37.9
					c-0.04,10-7,16.95-17,17c-12.52,0.05-25.04,0.05-37.56,0c-10.13-0.04-17.13-7.04-17.18-17.21c-0.05-12.52-0.07-25.04,0-37.56
					c0.06-9.98,7.04-16.89,17.04-16.96C162.8,258.56,169.06,258.6,175.32,258.6z M190.56,309.66c0-10.28,0-20.26,0-30.32
					c-10.23,0-20.29,0-30.38,0c0,10.21,0,20.18,0,30.32C170.33,309.66,180.3,309.66,190.56,309.66z"/>
				<path class="st1" d="M278.01,227.19c-6.26,0-12.52,0.06-18.78-0.02c-9.56-0.12-16.51-7.11-16.56-16.72
					c-0.07-12.75-0.07-25.5,0-38.24c0.05-9.73,7.09-16.72,16.88-16.76c12.63-0.06,25.27-0.06,37.9,0
					c9.76,0.04,16.86,7.02,16.94,16.74c0.1,12.75,0.1,25.5,0,38.24c-0.08,9.75-7.13,16.66-16.92,16.74
					C290.99,227.24,284.5,227.19,278.01,227.19z M293.73,206.52c0-10.27,0-20.24,0-30.33c-10.24,0-20.29,0-30.39,0
					c0,10.22,0,20.19,0,30.33C273.49,206.52,283.46,206.52,293.73,206.52z"/>
				<path class="st1" d="M242.66,294.2c0-6.26-0.04-12.52,0.01-18.78c0.08-9.78,7.02-16.75,16.82-16.8
					c12.75-0.07,25.5-0.07,38.24,0.01c9.56,0.06,16.58,7.04,16.66,16.63c0.11,12.75,0.1,25.5,0.01,38.24
					c-0.07,9.76-7.12,16.78-16.85,16.84c-12.75,0.07-25.5,0.08-38.24,0c-9.54-0.06-16.51-7.13-16.65-16.67c0-0.23,0-0.46,0-0.68
					C242.66,306.72,242.66,300.46,242.66,294.2z M263.26,309.55c10.4,0,20.45,0,30.43,0c0-10.26,0-20.23,0-30.17
					c-10.28,0-20.34,0-30.43,0C263.26,289.55,263.26,299.44,263.26,309.55z"/>
				<path class="st1" d="M211.24,191.23c0,6.37,0.05,12.75-0.01,19.12c-0.08,9.8-7.01,16.77-16.8,16.82
					c-12.75,0.07-25.5,0.08-38.25,0c-9.57-0.06-16.61-7.05-16.69-16.62c-0.1-12.86-0.11-25.73,0.01-38.59
					c0.08-9.36,7.16-16.43,16.48-16.5c12.98-0.1,25.95-0.11,38.93,0c9.17,0.08,16.16,7.14,16.3,16.29
					C211.32,178.25,211.24,184.74,211.24,191.23z M190.58,176.15c-10.32,0-20.29,0-30.34,0c0,10.25,0,20.31,0,30.35
					c10.23,0,20.21,0,30.34,0C190.58,196.34,190.58,186.37,190.58,176.15z"/>
				<path class="st1" d="M94.13,156.92c0-7.62-0.76-15.33,0.16-22.84c1.7-13.85,13.17-23.97,27.03-24.33
					c13.32-0.34,26.65-0.19,39.98-0.06c6,0.06,10.42,4.84,10.26,10.54c-0.16,5.64-4.54,9.79-10.52,9.9
					c-2.96,0.05-5.95-0.25-8.88,0.06c-11.82,1.26-24.03-2.99-35.55,2.49c-5.22,11.56-1.15,23.76-2.38,35.59
					c-0.27,2.59-0.02,5.24-0.04,7.86c-0.05,6.76-4.08,11.31-10.08,11.39c-6.08,0.08-10.39-4.63-10.42-11.45
					c-0.03-6.38-0.01-12.76-0.01-19.14C93.84,156.92,93.98,156.92,94.13,156.92z"/>
			</g>
		</g>
	</g>
</g>
</svg>
