<?xml version="1.0" encoding="utf-8"?>
<!-- Generator: Adobe Illustrator 23.0.6, SVG Export Plug-In . SVG Version: 6.00 Build 0)  -->
<svg version="1.1" id="Layer_1" xmlns="http://www.w3.org/2000/svg" xmlns:xlink="http://www.w3.org/1999/xlink" x="0px" y="0px"
	 viewBox="0 0 748.53 697.29" style="enable-background:new 0 0 748.53 697.29;" xml:space="preserve">
<style type="text/css">
	.st0{fill:#9AA0AF;}
</style>
<path class="st0" d="M326.31,625.24c-53.93,0-107.82-20.51-148.87-61.57c-78.12-78.08-82.33-204.41-9.61-287.55l138.22-157.96
	c61.29-61.29,158.87-61.25,218.82-1.3c59.99,59.99,59.99,157.61,0,217.6L417.16,442.18c-38.92,38.99-106.87,38.99-145.79,0
	c-40.18-40.18-40.18-105.57,0-145.79l89.76-89.76l38.08,38.08l-89.76,89.76c-19.18,19.21-19.18,50.45,0,69.63
	c18.58,18.65,51.05,18.65,69.63,0l107.71-107.71c38.99-38.99,38.99-102.45,0-141.44s-102.45-38.99-141.44,0L208.36,311.61
	c-54.1,61.85-50.98,155.85,7.15,213.99c61.08,61.08,160.52,61.08,221.59,0l157.4-157.4l38.08,38.08l-157.4,157.4
	C434.13,604.73,380.24,625.24,326.31,625.24z"/>
</svg>
