<?xml version="1.0" encoding="utf-8"?>
<!-- Generator: Adobe Illustrator 23.0.6, SVG Export Plug-In . SVG Version: 6.00 Build 0)  -->
<svg version="1.1" id="Layer_1" xmlns="http://www.w3.org/2000/svg" xmlns:xlink="http://www.w3.org/1999/xlink" x="0px" y="0px"
	 viewBox="0 0 505.66 485.75" style="enable-background:new 0 0 505.66 485.75;" xml:space="preserve">
<style type="text/css">
	.st0{fill:#392788;stroke:#392788;stroke-width:0.25;stroke-miterlimit:10;}
</style>
<g>
	<g>
		<g>
			<g>
				<g id="T7UFWa.tif_8_">
					<g>
						<path class="st0" d="M414.9,29.35c8.26,0.19,15.2,3.13,20.95,8.87c6.95,6.93,13.89,13.88,20.83,20.82
							c14.47,14.49,14.52,31.08,0.11,45.49C412.3,149.02,367.81,193.51,323.32,238c-16.23,16.23-32.55,32.38-48.63,48.75
							c-4.05,4.12-8.44,6.7-14.17,7.77c-17.92,3.33-35.76,7.08-53.65,10.55c-9.96,1.93-17.08-5.33-15.11-15.36
							c3.69-18.84,7.33-37.68,11.32-56.45c0.65-3.05,2.43-6.29,4.64-8.5C269.7,162.56,331.81,100.5,393.89,38.4
							C399.75,32.54,406.76,29.5,414.9,29.35z M379.16,87.7c-1.09,1.3-1.97,2.55-3.04,3.61c-46.11,46.14-92.11,92.39-138.48,138.25
							c-7.47,7.39-12.91,14.9-13.75,25.64c-0.47,6.01-2.32,11.9-3.49,17.86c-0.23,1.15-0.19,2.34-0.29,3.71
							c1.05-0.07,1.73-0.03,2.39-0.16c10.56-2.1,21.13-4.11,31.64-6.43c1.83-0.4,3.63-1.86,5.02-3.25
							c48.9-48.82,97.75-97.68,146.61-146.54c1.05-1.05,2.05-2.15,3-3.14C398.94,107.45,389.37,97.9,379.16,87.7z M427.01,99.16
							c4.69-4.7,9.38-9.35,14.01-14.07c1.94-1.97,2.15-4.2,0.14-6.23c-7.67-7.75-15.4-15.46-23.13-23.15
							c-1.84-1.83-4.04-2.08-5.91-0.27c-4.93,4.77-9.71,9.71-14.38,14.4C407.54,79.65,417.09,89.21,427.01,99.16z"/>
					</g>
				</g>
				<g>
					<polygon class="st0" points="402.41,451.56 42.92,451.56 42.92,101.86 270.12,101.86 270.12,124.49 65.56,124.49 65.56,428.93 
						379.78,428.93 379.78,215.47 402.41,215.47 					"/>
					<path class="st0" d="M407.24,456.4H38.1V97.02h236.85v32.3H70.4V424.1h304.54V210.64h32.3V456.4z M47.76,446.73h349.81V220.3
						h-12.97v213.46H60.73V119.65h204.55v-12.97H47.76V446.73z"/>
				</g>
			</g>
		</g>
	</g>
</g>
</svg>
