<?xml version="1.0" encoding="utf-8"?>
<!-- Generator: Adobe Illustrator 23.0.6, SVG Export Plug-In . SVG Version: 6.00 Build 0)  -->
<svg version="1.1" id="Layer_1" xmlns="http://www.w3.org/2000/svg" xmlns:xlink="http://www.w3.org/1999/xlink" x="0px" y="0px"
	 viewBox="0 0 306.58 320.52" style="enable-background:new 0 0 306.58 320.52;" xml:space="preserve">
<style type="text/css">
	.st0{fill:#9AA0AF;}
</style>
<g>
	<g id="_x31_KEvjt.tif_1_">
		<g>
			<g>
				<path class="st0" d="M269.94,66.28c0,32.27,0,64.54,0,96.82c-0.17,0.68-0.38,1.35-0.5,2.04c-2.42,13.29-13.5,23.71-26.96,24.91
					c-5.55,0.5-11.16,0.2-16.74,0.36c-1.22,0.03-2.51,0.26-3.64,0.73c-16.11,6.68-32.19,13.42-48.28,20.14
					c-3.89,1.62-7.78,3.23-12.06,5c0-8.88,0-17.33,0-25.91c-3.97,0-7.66,0.07-11.35-0.04c-1.56-0.05-2.31,0.42-2.93,1.93
					c-3.45,8.32-8.83,15.18-16.07,20.56c-0.52,0.39-0.98,0.86-1.57,1.38c0.92,0.48,1.54,0.8,2.17,1.13
					c20.09,10.73,32.15,27.25,35.49,49.83c0.78,5.26,0.63,10.66,0.9,15.99c-43.92,0-87.84,0-131.76,0c0-4.26,0-8.51,0-12.75
					c0.14-0.44,0.34-0.87,0.4-1.31c3.02-23.6,15.23-40.81,36.15-51.95c0.59-0.31,1.16-0.65,1.82-1.03
					c-21.44-15.27-25.79-40.88-17.39-59.98c4.24-9.65,10.87-17.3,19.98-22.6c14.32-8.33,29.28-8.84,44.85-2.71c0-1.3,0-2.23,0-3.16
					c0-18.41-0.05-36.82,0.02-55.23c0.05-13.67,8.07-24.98,20.71-29.38c2.06-0.72,4.22-1.14,6.34-1.71c31.17,0,62.34,0,93.51,0
					c0.43,0.15,0.86,0.35,1.3,0.44c12.56,2.55,20.66,10.04,24.52,22.19C269.28,63.4,269.58,64.85,269.94,66.28z M175.98,194.89
					c1.07-0.41,1.79-0.66,2.5-0.95c8.77-3.66,17.73-6.93,26.26-11.09c10.64-5.19,21.52-7.49,33.39-6.8
					c10.54,0.61,17.63-6.93,17.63-17.48c0.02-29.11,0.01-58.22,0-87.34c0-10.75-6.98-17.71-17.73-17.72
					c-27.93-0.01-55.86-0.01-83.79,0c-10.64,0-17.6,6.9-17.62,17.55c-0.04,21.87-0.03,43.75,0.04,65.62c0,1.11,0.55,2.45,1.29,3.28
					c6.05,6.66,10.35,14.25,12.1,23.11c0.83,4.21,1.1,8.53,1.67,13.16c7.89,0,16.01,0,24.26,0
					C175.98,182.54,175.98,188.5,175.98,194.89z M102.34,138.92c-19.16,0.03-34.59,15.52-34.55,34.7
					c0.03,19.11,15.66,34.67,34.73,34.59c19.11-0.08,34.68-15.72,34.62-34.77C137.08,154.35,121.5,138.89,102.34,138.92z
					 M153.39,266.9c-2.55-22.7-23.25-44.52-51.15-44.41c-27.79,0.11-48.35,21.99-50.75,44.41C85.4,266.9,119.3,266.9,153.39,266.9z"
					/>
				<path class="st0" d="M193.69,104.97c8.42-8.43,16.69-16.72,24.82-24.86c3.3,3.34,6.54,6.61,9.63,9.72
					c-11.39,11.39-23.05,23.05-34.57,34.57c-8.04-8.04-16.31-16.31-24.34-24.35c3.06-3.07,6.36-6.37,9.8-9.82
					C183.62,94.86,188.55,99.81,193.69,104.97z"/>
				<path class="st0" d="M173.66,151.21c0-4.73,0-9.26,0-13.91c15.04,0,29.95,0,45.04,0c0,4.62,0,9.21,0,13.91
					C203.7,151.21,188.79,151.21,173.66,151.21z"/>
			</g>
		</g>
	</g>
</g>
</svg>
