<?xml version="1.0" encoding="UTF-8" standalone="no"?>
<!-- Created with Inkscape (http://www.inkscape.org/) -->

<svg
   version="1.1"
   id="svg6437"
   width="258.00919"
   height="71.052002"
   xmlns:inkscape="http://www.inkscape.org/namespaces/inkscape"
   xmlns:sodipodi="http://sodipodi.sourceforge.net/DTD/sodipodi-0.dtd"
   xmlns="http://www.w3.org/2000/svg"
   xmlns:svg="http://www.w3.org/2000/svg">
  <defs
     id="defs6441">
    <clipPath
       clipPathUnits="userSpaceOnUse"
       id="clipPath1236">
      <path
         d="M 0,2042 H 1440 V 0 H 0 Z"
         id="path1234" />
    </clipPath>
  </defs>
  <sodipodi:namedview
     id="namedview6439"
     pagecolor="#ffffff"
     bordercolor="#666666"
     borderopacity="1.0"
     inkscape:pageshadow="2"
     inkscape:pageopacity="0.0"
     inkscape:pagecheckerboard="0" />
  <inkscape:clipboard
     style="font-variation-settings:normal;opacity:1;vector-effect:none;fill:#000000;fill-opacity:1;stroke-width:1.3333333;stroke-linecap:butt;stroke-linejoin:miter;stroke-miterlimit:4;stroke-dasharray:none;stroke-dashoffset:0;stroke-opacity:1;-inkscape-stroke:none;stop-color:#000000;stop-opacity:1"
     min="156.00053,2449.9616"
     max="414.00972,2521.0136"
     geom-min="156.00053,2449.9616"
     geom-max="414.00972,2521.0136" />
  <g
     id="g6445"
     transform="matrix(1.3333333,0,0,-1.3333333,-156.00053,272.70506)">
    <g
       id="g1230">
      <g
         id="g1232"
         clip-path="url(#clipPath1236)">
        <g
           id="g1238"
           transform="translate(179.9966,185.6719)">
          <path
             d="M 0,0 V -23.048 H -3.655 V 0 h -8.839 V 3.394 H 8.839 V 0 Z"
             style="fill:#ffffff;fill-opacity:1;fill-rule:nonzero;stroke:none"
             id="path1240" />
        </g>
        <g
           id="g1242"
           transform="translate(193.6787,162.0645)">
          <path
             d="m 0,0 c -4.176,0 -6.712,3.133 -6.712,7.198 v 11.3 h 3.505 V 7.72 c 0,-2.461 1.119,-4.624 4.065,-4.624 2.834,0 4.252,1.864 4.252,4.588 V 18.498 H 8.616 V 3.879 C 8.616,2.462 8.727,1.193 8.803,0.56 H 5.445 C 5.371,0.97 5.297,1.977 5.297,2.723 4.326,0.857 2.089,0 0,0"
             style="fill:#ffffff;fill-opacity:1;fill-rule:nonzero;stroke:none"
             id="path1244" />
        </g>
        <g
           id="g1246"
           transform="translate(216.0518,176.4971)">
          <path
             d="m 0,0 c -2.201,0 -4.177,-1.492 -4.177,-4.587 0,-3.059 1.976,-4.625 4.177,-4.625 2.238,0 4.214,1.53 4.214,4.625 C 4.214,-1.492 2.238,0 0,0 M -9.771,-20.96 V 4.662 h 5.482 V 2.76 c 0.784,1.193 2.798,2.349 5.446,2.349 5.369,0 8.614,-4.102 8.614,-9.658 0,-5.67 -3.654,-9.734 -8.838,-9.734 -2.388,0 -4.177,0.82 -5.035,1.864 v -8.541 z"
             style="fill:#ffffff;fill-opacity:1;fill-rule:nonzero;stroke:none"
             id="path1248" />
        </g>
        <g
           id="g1250"
           transform="translate(236.5581,167.2852)">
          <path
             d="M 0,0 C 2.2,0 4.178,1.53 4.178,4.625 4.178,7.72 2.2,9.212 0,9.212 -2.2,9.212 -4.176,7.72 -4.176,4.625 -4.176,1.566 -2.2,0 0,0 m 4.103,-11.748 v 8.578 c -0.82,-1.155 -2.537,-1.901 -4.849,-1.901 -5.296,0 -9.174,4.064 -9.174,9.734 0,5.52 3.655,9.658 8.951,9.658 3.282,0 4.811,-1.491 5.221,-2.274 v 1.827 H 9.66 v -25.622 z"
             style="fill:#ffffff;fill-opacity:1;fill-rule:nonzero;stroke:none"
             id="path1252" />
        </g>
        <g
           id="g1254"
           transform="translate(261.4663,175.5645)">
          <path
             d="m 0,0 c -0.634,0.15 -1.23,0.187 -1.79,0.187 -2.274,0 -4.326,-1.342 -4.326,-5.035 v -8.092 h -5.668 V 5.595 h 5.482 V 3.097 c 0.969,2.088 3.319,2.684 4.811,2.684 0.56,0 1.118,-0.074 1.491,-0.186 z"
             style="fill:#ffffff;fill-opacity:1;fill-rule:nonzero;stroke:none"
             id="path1256" />
        </g>
        <g
           id="g1258"
           transform="translate(266.834,168.7402)">
          <path
             d="m 0,0 c 0.074,-1.269 0.969,-2.499 2.908,-2.499 1.456,0 2.164,0.783 2.164,1.603 0,0.672 -0.447,1.232 -1.827,1.531 L 1.119,1.118 c -3.953,0.859 -5.52,3.097 -5.52,5.706 0,3.395 2.983,6.155 7.123,6.155 5.371,0 7.236,-3.357 7.423,-5.521 L 5.445,6.602 C 5.295,7.831 4.513,8.876 2.797,8.876 1.715,8.876 0.782,8.242 0.782,7.271 0.782,6.489 1.417,6.042 2.238,5.892 L 4.699,5.408 c 3.842,-0.784 5.706,-3.096 5.706,-5.818 0,-3.17 -2.424,-6.266 -7.384,-6.266 -5.818,0 -7.683,3.767 -7.833,5.819 z"
             style="fill:#ffffff;fill-opacity:1;fill-rule:nonzero;stroke:none"
             id="path1260" />
        </g>
        <g
           id="g1262"
           transform="translate(282.5483,166.3926)">
          <path
             d="m 0,0 c 1.114,0 2.031,-0.915 2.031,-2.029 0,-1.115 -0.917,-2.007 -2.031,-2.007 -1.114,0 -2.005,0.892 -2.005,2.007 C -2.005,-0.915 -1.114,0 0,0"
             style="fill:#ffffff;fill-opacity:1;fill-rule:nonzero;stroke:none"
             id="path1264" />
        </g>
        <g
           id="g1266"
           transform="translate(288.5923,168.5469)">
          <path
             d="m 0,0 c 0,-2.426 1.559,-3.787 3.367,-3.787 1.882,0 2.749,1.311 3.021,2.227 l 2.526,-0.916 c -0.57,-1.882 -2.378,-3.936 -5.547,-3.936 -3.54,0 -6.239,2.748 -6.239,6.412 0,3.714 2.699,6.389 6.164,6.389 3.244,0 5.028,-2.031 5.523,-3.962 L 6.24,1.486 C 5.967,2.552 5.15,3.74 3.318,3.74 1.559,3.74 0,2.427 0,0"
             style="fill:#ffffff;fill-opacity:1;fill-rule:nonzero;stroke:none"
             id="path1268" />
        </g>
        <g
           id="g1270"
           transform="translate(307.6113,168.5469)">
          <path
             d="m 0,0 c 0,2.501 -1.584,3.789 -3.368,3.789 -1.758,0 -3.367,-1.288 -3.367,-3.789 0,-2.5 1.609,-3.838 3.367,-3.838 C -1.584,-3.838 0,-2.524 0,0 m 2.896,0 c 0,-3.713 -2.648,-6.412 -6.264,-6.412 -3.59,0 -6.239,2.699 -6.239,6.412 0,3.689 2.649,6.389 6.239,6.389 3.616,0 6.264,-2.7 6.264,-6.389"
             style="fill:#ffffff;fill-opacity:1;fill-rule:nonzero;stroke:none"
             id="path1272" />
        </g>
        <g
           id="g1274"
           transform="translate(150.7314,173.3828)">
          <path
             d="M 0,0 -6.491,-4.898 V 20.077 L 0,16.727 Z m -9.237,-0.3 -5.243,-2.197 v 20.173 l 5.243,-1.548 z m -8.239,2.297 -3.745,-0.999 v 13.481 l 3.745,-0.749 z M 6.667,22.538 c -4.146,5.241 -10.558,8.608 -17.76,8.608 -0.31,0 -0.617,-0.01 -0.924,-0.023 -0.307,0.011 -0.614,0.023 -0.924,0.023 v -0.081 c -11.637,-0.941 -20.79,-10.676 -20.79,-22.556 0,-11.88 9.153,-21.616 20.79,-22.557 v -8.095 c 14.715,0 26.645,11.929 26.645,26.645 0,6.958 -2.67,13.291 -7.037,18.036"
             style="fill:#ffffff;fill-opacity:1;fill-rule:nonzero;stroke:none"
             id="path1276" />
        </g>
      </g>
    </g>
  </g>
</svg>
