<?xml version="1.0" encoding="utf-8"?>
<!-- Generator: Adobe Illustrator 23.0.6, SVG Export Plug-In . SVG Version: 6.00 Build 0)  -->
<svg version="1.1" id="Layer_1" xmlns="http://www.w3.org/2000/svg" xmlns:xlink="http://www.w3.org/1999/xlink" x="0px" y="0px"
	 viewBox="0 0 1080 822.19" style="enable-background:new 0 0 1080 822.19;" xml:space="preserve">
<style type="text/css">
	.st0{fill:#D2CDE2;}
	.st1{fill:#F8AFB5;}
	.st2{fill:#3F2E8D;}
	.st3{fill:#FFFFFF;}
	.st4{fill:#302E43;}
</style>
<g>
	<g>
		<path class="st0" d="M199.04,646.69h-82.52c-3.77-0.01-7.35,1.65-9.78,4.52c-10.63-1.95-20.83,5.08-22.78,15.71
			c-1.95,10.63,5.08,20.83,15.71,22.78c4.11,0.76,8.36,0.17,12.12-1.66l9.64,80.95c1.66,5.41,6.66,9.1,12.32,9.1h53.65
			c5.66,0,10.66-3.69,12.32-9.1l11.64-105.62c2.09-6.81-1.73-14.02-8.53-16.12C201.6,646.88,200.32,646.69,199.04,646.69z
			 M103.26,684.43c-7.72,0-13.98-6.26-13.98-13.98s6.26-13.98,13.98-13.98c0.26,0,0.49,0.06,0.75,0.08
			c-0.56,2.25-0.49,4.61,0.2,6.82l5.9,19.19C108.02,683.77,105.66,684.42,103.26,684.43z"/>
		<polygon class="st0" points="492.11,618.52 437.77,413.06 431.48,389.34 437.38,383.87 538.65,333.69 683.37,337.3 768.33,380.91 
			768.79,413.06 772.98,702.7 789.93,773.79 479.09,773.79 503.22,660.57 		"/>
		<path class="st0" d="M849.58,773.79h-81.01L746.21,612.3l5.85-199.24l0.81-27.1l15.46-5.05c11.66,8.51,21.29,19.49,28.22,32.15
			c9.94,17.3,18.19,42.09,16.14,75.42c0,0,1.84,39.36,0.09,65.57C811.58,571.96,832.48,685.16,849.58,773.79z"/>
		<path class="st0" d="M492.39,616.47l-0.28,2.05l-21.49,155.27h-93.15c7.47-87.98,16.25-197.97,15.07-215.59
			c-1.75-26.19,0.09-65.57,0.09-65.57c-2.23-36.1,7.67-62.14,18.65-79.57c5.53-8.86,12.34-16.85,20.2-23.72
			c1.75-1.53,3.58-2.95,5.5-4.26l15.46,5.02l4.04,22.96L492.39,616.47z"/>
		<path class="st1" d="M503.13,198.68c0,55.4,44.91,100.32,100.32,100.32c55.4,0,100.32-44.91,100.32-100.32
			S658.85,98.36,603.45,98.36l0,0l0,0c-55.27-0.14-100.18,44.55-100.32,99.82C503.13,198.34,503.13,198.51,503.13,198.68z"/>
		<path class="st2" d="M923.87,757.79L923.87,757.79c0,11.92-9.67,21.59-21.59,21.59H324.76c-11.92,0-21.59-9.67-21.59-21.59l0,0
			l0,0c0-11.92,9.67-21.59,21.59-21.59h6.41c-0.37-1.29-0.56-2.62-0.57-3.95V437.4c0-10.36,8.39-18.75,18.75-18.75h528.34
			c10.36,0,18.75,8.39,18.75,18.75v294.85c0,1.34-0.19,2.67-0.57,3.95h6.41C914.21,736.2,923.87,745.87,923.87,757.79z"/>
		<path class="st3" d="M624.71,587.05c-18.43,0-33.37-14.94-33.37-33.37s14.94-33.37,33.37-33.37c18.43,0,33.37,14.94,33.37,33.37
			C658.06,572.1,643.13,587.03,624.71,587.05z M624.71,525.9c-15.34,0-27.78,12.44-27.78,27.78c0,15.34,12.44,27.78,27.78,27.78
			c15.34,0,27.78-12.44,27.78-27.78c0,0,0,0,0,0C652.47,538.34,640.04,525.91,624.71,525.9z"/>
		<circle class="st3" cx="613.52" cy="542.49" r="30.58"/>
		<path class="st4" d="M717.08,115.35c-8.09-6.24-14.66-14.23-19.23-23.37c-1.63-3.47-3.88-6.62-6.64-9.29l-18.97,14.59l11.59-20.19
			c-29.69-17.95-87.66-8.41-87.66-8.41c-60.31-32.11-82.46,7.97-90.18,33.4c-3.06,9.2-8.45,17.45-15.65,23.94
			c-14.88,14.19,8.55,41.78,8.55,41.78v1.95l5.59,37.98c0,0,5.59-25.16,20.35-42.85c9.3-11.15,24.45-17.78,31.48-17.64
			c90.77,1.77,107.95,5.37,107.95,5.37s15.37,8.26,22.15,11.72c21.93,11.21,16.58,51.79,16.58,51.79l16.39-72.02
			C723.16,126.63,721.06,118.62,717.08,115.35z"/>
	</g>
	<path class="st2" d="M1040.49,785.36H39.51c-1.95,0-3.54-1.58-3.54-3.54c0-1.95,1.58-3.54,3.54-3.54h1000.98
		c1.95,0,3.54,1.58,3.54,3.54C1044.02,783.78,1042.44,785.36,1040.49,785.36z"/>
</g>
</svg>
