<?xml version="1.0" encoding="utf-8"?>
<!-- Generator: Adobe Illustrator 23.0.6, SVG Export Plug-In . SVG Version: 6.00 Build 0)  -->
<svg version="1.1" id="Layer_1" xmlns="http://www.w3.org/2000/svg" xmlns:xlink="http://www.w3.org/1999/xlink" x="0px" y="0px"
	 viewBox="0 0 1040.79 760.48" style="enable-background:new 0 0 1040.79 760.48;" xml:space="preserve">
<style type="text/css">
	.st0{fill:#F1F1F1;}
	.st1{fill:#FFFFFF;}
	.st2{fill:#381697;}
	.st3{fill:#CBCBCB;}
	.st4{fill:#E5E5E5;}
	.st5{fill:#403D58;}
	.st6{fill:#FFB3B5;}
	.st7{fill:#A547E8;}
	.st8{fill:#2F2E43;}
	.st9{fill:#AB5D69;}
</style>
<g>
	<path class="st0" d="M909.94,579.17h-772.8c-10.98-0.01-19.89-8.91-19.9-19.9V82.74c0.01-8.05,6.53-14.57,14.58-14.58h783.19
		c8.19,0.01,14.82,6.64,14.83,14.83v476.27C929.82,570.25,920.92,579.16,909.94,579.17z"/>
	<path class="st1" d="M881.75,554.61H161.51c-10.56,0-19.15-8.04-19.15-17.93V121.71c0-7.33,6.36-13.3,14.19-13.3h729.92
		c7.95,0,14.42,6.06,14.42,13.52v414.75C900.89,546.56,892.3,554.61,881.75,554.61z"/>
	<path class="st2" d="M929.56,85.22h-812.6V75.09c0.02-11.02,8.95-19.95,19.97-19.96h772.66c11.02,0.01,19.95,8.94,19.97,19.96
		V85.22z"/>
	<circle class="st1" cx="153.25" cy="70.21" r="5.17"/>
	<circle class="st1" cx="172.86" cy="70.21" r="5.17"/>
	<circle class="st1" cx="192.46" cy="70.21" r="5.17"/>
	<path class="st3" d="M500.32,501.07H249.69c-11.65-0.01-21.09-9.45-21.1-21.1V177.09c0.01-8.71,7.07-15.77,15.78-15.78h261.03
		c8.85,0.01,16.03,7.18,16.04,16.04v302.62C521.41,491.61,511.97,501.05,500.32,501.07z M244.36,163.72
		c-7.38,0.01-13.36,5.99-13.37,13.37v302.87c0.01,10.32,8.37,18.68,18.69,18.69h250.64c10.32-0.01,18.68-8.37,18.69-18.69V177.34
		c-0.01-7.52-6.1-13.62-13.62-13.62H244.36z"/>
	<path class="st4" d="M268.98,479.96h212.05c10.66,0,19.29-8.64,19.29-19.29V201.94c0-10.66-8.64-19.29-19.29-19.29H268.98
		c-10.66,0-19.29,8.64-19.29,19.29v258.73C249.69,471.32,258.32,479.96,268.98,479.96z"/>
	<path class="st1" d="M433.49,235.43H316.52c-4.33,0-7.84-3.51-7.84-7.84s3.51-7.84,7.84-7.84h116.97c4.33,0,7.84,3.51,7.84,7.84
		S437.82,235.43,433.49,235.43z"/>
	<path class="st1" d="M433.49,405.47H316.52c-4.33,0-7.84-3.51-7.84-7.84c0-4.33,3.51-7.84,7.84-7.84h116.97
		c4.33,0,7.84,3.51,7.84,7.84C441.33,401.96,437.82,405.47,433.49,405.47z"/>
	<path class="st1" d="M433.49,442.85H316.52c-4.33,0-7.84-3.51-7.84-7.84c0-4.33,3.51-7.84,7.84-7.84h116.97
		c4.33,0,7.84,3.51,7.84,7.84C441.33,439.34,437.82,442.85,433.49,442.85z"/>
	<circle class="st1" cx="375.61" cy="303.57" r="47.03"/>
	<path class="st4" d="M653.11,260.47l-20.54,4.33c-0.65,0.14-1.07,0.78-0.93,1.43c0.02,0.1,0.06,0.2,0.1,0.3l1.91,3.77l-92.91,47.16
		c-0.59,0.3-0.83,1.03-0.53,1.62c0.3,0.59,1.03,0.83,1.62,0.53l0,0l92.91-47.16l1.91,3.77c0.3,0.59,1.03,0.83,1.62,0.53
		c0.09-0.05,0.18-0.11,0.26-0.18l15.63-14.03c0.5-0.44,0.54-1.21,0.09-1.7C653.97,260.52,653.53,260.38,653.11,260.47z"/>
	<path class="st4" d="M653.11,377.69l-20.54-4.33c-0.65-0.14-1.07-0.78-0.93-1.43c0.02-0.1,0.06-0.2,0.1-0.3l1.91-3.77l-92.91-47.16
		c-0.59-0.3-0.83-1.03-0.53-1.62c0.3-0.59,1.03-0.83,1.62-0.53l92.91,47.16l1.91-3.77c0.3-0.59,1.03-0.83,1.62-0.53
		c0.09,0.05,0.18,0.11,0.26,0.18l15.63,14.03c0.5,0.44,0.54,1.21,0.09,1.7C653.97,377.64,653.53,377.78,653.11,377.69z"/>
	<path class="st4" d="M720.83,287.31c-14.65,0-26.53-11.88-26.53-26.53c0-14.65,11.88-26.53,26.53-26.53
		c14.65,0,26.53,11.88,26.53,26.53C747.34,275.42,735.47,287.29,720.83,287.31z M720.83,236.66c-13.32,0-24.12,10.8-24.12,24.12
		s10.8,24.12,24.12,24.12s24.12-10.8,24.12-24.12C744.93,247.46,734.14,236.67,720.83,236.66z"/>
	<path class="st4" d="M720.83,404.28c-14.65,0-26.53-11.88-26.53-26.53c0-14.65,11.88-26.53,26.53-26.53
		c14.65,0,26.53,11.88,26.53,26.53l0,0C747.34,392.4,735.47,404.27,720.83,404.28z M720.83,353.63c-13.32,0-24.12,10.8-24.12,24.12
		c0,13.32,10.8,24.12,24.12,24.12s24.12-10.8,24.12-24.12C744.93,364.44,734.14,353.65,720.83,353.63z"/>
	<path id="a52d33ee-34c0-426d-bf77-f0f4463d7cbc_1_" class="st4" d="M718.73,273.85c-0.77,0-1.51-0.25-2.13-0.71l-0.04-0.03
		l-8.01-6.13c-1.56-1.19-1.86-3.43-0.67-4.99c1.19-1.56,3.43-1.86,4.99-0.67c0,0,0.01,0.01,0.01,0.01l5.19,3.98l12.26-15.99
		c1.2-1.56,3.43-1.85,4.99-0.66l0,0l0,0l-0.08,0.11l0.08-0.11c1.56,1.2,1.85,3.43,0.66,4.99l-14.42,18.8
		C720.88,273.34,719.84,273.85,718.73,273.85L718.73,273.85z"/>
	<path class="st4" d="M709.32,389.26c-0.71-0.71-0.71-1.85,0-2.56c0,0,0,0,0,0l20.47-20.47c0.71-0.71,1.85-0.71,2.56,0
		c0.71,0.71,0.71,1.85,0,2.56l0,0l-20.47,20.47C711.17,389.97,710.02,389.97,709.32,389.26
		C709.32,389.26,709.32,389.26,709.32,389.26z"/>
	<path class="st4" d="M731.13,389.26c0.71-0.71,0.71-1.85,0-2.56c0,0,0,0,0,0l-20.47-20.47c-0.71-0.71-1.85-0.71-2.56,0
		c-0.71,0.71-0.71,1.85,0,2.56l0,0l20.47,20.47C729.28,389.97,730.43,389.97,731.13,389.26
		C731.13,389.26,731.13,389.26,731.13,389.26z"/>
	<path class="st2" d="M766.64,320.05c-0.08,0-0.16-0.01-0.23-0.02c-0.42-0.06-0.8-0.29-1.05-0.63l-9.86-13.22
		c-0.13-0.18-0.38-0.21-0.56-0.08c-0.06,0.04-0.1,0.1-0.13,0.16l-5.05,11.83c-0.35,0.81-1.29,1.19-2.1,0.84
		c-0.46-0.2-0.8-0.59-0.92-1.07l-10.09-39.04c-0.22-0.86,0.29-1.73,1.15-1.95c0.42-0.11,0.86-0.04,1.23,0.18l34.54,20.81
		c0.76,0.46,1,1.44,0.55,2.2c-0.26,0.43-0.7,0.71-1.19,0.77l-12.77,1.47c-0.22,0.03-0.37,0.22-0.35,0.44
		c0.01,0.07,0.03,0.14,0.08,0.19l9.86,13.22c0.53,0.71,0.38,1.71-0.33,2.24l-1.81,1.35C767.32,319.94,766.98,320.05,766.64,320.05z"
		/>
	<path class="st2" d="M822.73,348.81h-43.41c-6.66,0-12.06-5.4-12.06-12.06s5.4-12.06,12.06-12.06h43.41
		c6.66,0,12.06,5.4,12.06,12.06S829.39,348.81,822.73,348.81z"/>
	<path class="st5" d="M321.65,265.47l-1.81-1.35c-0.71-0.53-0.86-1.53-0.33-2.24l9.86-13.22c0.13-0.18,0.09-0.43-0.08-0.56
		c-0.06-0.04-0.12-0.07-0.19-0.08l-12.77-1.47c-0.88-0.1-1.51-0.9-1.41-1.78c0.06-0.49,0.34-0.93,0.77-1.19l34.54-20.81
		c0.76-0.46,1.74-0.21,2.2,0.55c0.22,0.37,0.29,0.81,0.18,1.23l-10.09,39.04c-0.22,0.86-1.1,1.37-1.95,1.15
		c-0.48-0.12-0.88-0.47-1.07-0.92L334.44,252c-0.09-0.2-0.32-0.3-0.52-0.21c-0.06,0.03-0.12,0.07-0.16,0.13l-9.86,13.22
		c-0.25,0.34-0.63,0.57-1.05,0.63c-0.08,0.01-0.16,0.02-0.23,0.02C322.26,265.79,321.93,265.67,321.65,265.47z"/>
	<path class="st5" d="M254.46,282.48c0.01-6.66,5.4-12.05,12.06-12.06h43.41c6.66,0,12.06,5.4,12.06,12.06s-5.4,12.06-12.06,12.06
		h-43.41C259.86,294.54,254.47,289.14,254.46,282.48z"/>
	<path class="st6" d="M162.77,456.84c-6.66-0.67-11.52-6.62-10.85-13.28c0.07-0.71,0.21-1.41,0.4-2.1l-35.3-24.71l20.82-8.24
		l30.33,24.73c6.34,2.26,9.65,9.24,7.38,15.58C173.65,454.12,168.37,457.44,162.77,456.84L162.77,456.84z"/>
	<path class="st7" d="M143.6,438.05l-31.97-18.54c-6.49-3.67-11.15-9.9-12.83-17.17c-1.52-6.88-0.12-14.07,3.85-19.88l26.47-39.04
		c4.1-6.05,12.32-7.63,18.37-3.53c5.41,3.67,7.33,10.75,4.52,16.65l-20.67,43.3l20.94,18.43c1.47,1.3,2.13,3.29,1.72,5.22
		l-2.37,11.01c-0.36,1.7-1.52,3.13-3.11,3.82C146.93,439.03,145.1,438.93,143.6,438.05L143.6,438.05z"/>
	<path class="st6" d="M288.46,351.31c-2.03,6.38-8.84,9.92-15.23,7.89c-0.68-0.22-1.34-0.49-1.97-0.82l-31.45,29.47l-3.79-22.07
		l30.44-24.6c3.52-5.74,11.03-7.54,16.77-4.02C288.04,340.1,290.2,345.95,288.46,351.31L288.46,351.31z"/>
	<circle class="st6" cx="159.66" cy="283.01" r="29.62"/>
	<polygon class="st6" points="246.87,688.2 261.04,683.98 251.52,627.32 230.61,633.54 	"/>
	<path class="st8" d="M241.88,684.65l27.91-8.3l0,0c9.82-2.92,20.15,2.67,23.08,12.49c0,0,0,0,0,0l0.17,0.58l-45.69,13.59
		L241.88,684.65z"/>
	<polygon class="st6" points="91.62,687.47 106.4,687.47 113.44,630.45 98.85,630.45 	"/>
	<path class="st8" d="M87.85,682.65l29.12,0h0c10.25,0,18.55,8.31,18.55,18.55c0,0,0,0,0,0v0.6l-47.67,0L87.85,682.65z"/>
	<path class="st8" d="M236.29,667.79l-55.46-159.58c-0.24-0.72-0.91-1.21-1.67-1.21c-0.76-0.04-1.46,0.42-1.72,1.14l-63.9,159.75
		c-0.85,2.15-2.99,3.52-5.3,3.4l-16.68-0.81c-2.99-0.15-5.3-2.69-5.16-5.68c0.02-0.36,0.07-0.72,0.16-1.07l60.44-238.22l60.64-4.95
		l0.4,0.57c0.33,0.47,32.77,48.24,32.75,130.71l20.79,113.2c0.54,2.95-1.41,5.78-4.36,6.32c-0.32,0.06-0.65,0.09-0.98,0.09h-14.84
		C239.11,671.43,237.05,669.97,236.29,667.79z"/>
	<path class="st7" d="M125.4,371.46c-4.34-12.42-1.89-26.21,6.46-36.38c8.16-10.11,20.99-15.25,33.87-13.55c0.5,0.07,1,0.14,1.5,0.2
		l0,0c16.56,2.24,29.67,15.1,32.22,31.61l11.33,72.03l-64.57,4.87l-0.46,0.03L125.4,371.46z"/>
	<path class="st7" d="M219.62,400.69c-7.14-0.24-13.86-3.48-18.5-8.91l-30.54-35.41c-2.37-2.65-3.61-6.13-3.45-9.68
		c0.19-3.76,1.99-7.25,4.94-9.59c4.96-3.96,12.04-3.84,16.87,0.29l36.42,31.22l22.41-15.59c1.64-1.14,3.77-1.29,5.55-0.39
		l10.72,5.43c2.67,1.35,3.74,4.62,2.39,7.29c-0.26,0.52-0.61,0.99-1.02,1.4l-26.67,26.48c-4.8,4.8-11.31,7.49-18.1,7.48
		C220.3,400.71,219.96,400.7,219.62,400.69z"/>
	<path class="st8" d="M182.18,275.61c3.69,1.43,7.57,2.29,11.52,2.54c3.97,0.05,8.19-1.33,10.36-4.35c1.69-2.67,2.12-5.95,1.19-8.97
		c-1.67-6.13-5.98-11.19-11.76-13.82c-6.06-2.75-12.97-2.97-19.2-0.62c-2.23-6.77-10.62-10.46-18.39-10.67
		c-15.87-0.43-30.06,10.4-36.95,23.41c-6.89,13.01-7.9,27.88-8.33,42.32c-0.1,3.52-0.15,7.19,1.52,10.37
		c2.48,4.73,8.13,7.28,13.45,9.31c13.95,5.29,28.35,9.34,43.01,12.09c-7.04-4.5-9.28-14.19-4.82-20.89c2.18-3.28,5.77-6,6.35-9.8
		c0.7-4.55-3.19-8.53-4.62-12.93c-1.48-4.87-0.02-10.15,3.75-13.57c4.08-3.54,9.64-4.86,14.88-3.53"/>
	<path class="st2" d="M344.87,703.35H45.8c-0.67,0-1.21-0.54-1.21-1.21c0-0.67,0.54-1.21,1.21-1.21h299.07
		c0.67,0,1.21,0.54,1.21,1.21C346.08,702.81,345.54,703.35,344.87,703.35z"/>
	<g>
		<path class="st9" d="M838.64,501.08c4.94-4.53,5.27-12.2,0.74-17.13c-0.48-0.53-1.01-1.01-1.58-1.44l13.48-40.93l-21.61,5.86
			l-9.49,37.97c-3.72,5.61-2.19,13.18,3.42,16.9C828.29,505.42,834.51,504.92,838.64,501.08z"/>
		<path class="st9" d="M968.28,498.67c-4.94-4.53-5.27-12.2-0.74-17.13c0.48-0.53,1.01-1.01,1.58-1.44l-13.48-40.93l21.61,5.86
			l9.49,37.97c3.72,5.61,2.19,13.18-3.42,16.9C978.62,503.01,972.4,502.51,968.28,498.67z"/>
		<circle class="st9" cx="904.93" cy="264.59" r="29.62"/>
		<polygon class="st9" points="876.97,688.68 862.19,688.68 855.15,631.65 876.97,631.65 		"/>
		<path class="st8" d="M880.74,703.01l-47.67,0v-0.6c0-10.25,8.31-18.55,18.55-18.55c0,0,0,0,0,0h0l29.12,0L880.74,703.01z"/>
		<polygon class="st9" points="927.62,688.68 912.84,688.68 905.8,631.65 927.62,631.65 		"/>
		<path class="st8" d="M931.39,703.01l-47.67,0v-0.6c0-10.25,8.31-18.55,18.55-18.55c0,0,0,0,0,0h0l29.12,0L931.39,703.01z"/>
		<path class="st8" d="M876.73,672.01l-17.37-0.05c-1.51,0.19-3.02-0.26-4.17-1.25c-1.18-1-1.87-2.46-1.9-4l2-192.2l80.14-0.8
			l-4.65,191.58c-0.05,2.95-2.47,5.31-5.42,5.3h-17.91c-2.92,0.01-5.32-2.3-5.42-5.22l-4.33-114.98c0-0.32-0.25-0.58-0.57-0.58
			c-0.01,0-0.02,0-0.03,0c-0.32-0.01-0.59,0.24-0.61,0.56l-15.08,116.68C881.21,669.59,879.27,671.66,876.73,672.01z"/>
		<path class="st7" d="M891.68,487.6c-11.84,0-24.35-2.12-35.65-8.3c-1.72-0.94-2.81-2.73-2.85-4.69l-1.58-87.72l-2.22-18.77
			c-2.72-22.83,8.49-45.06,28.46-56.45l1.03-0.59l2.89-6.75c0.48-1.14,1.62-1.87,2.86-1.83l38.88,1.11
			c1.26,0.04,2.37,0.86,2.77,2.06l1.81,5.42c20.43,11.73,31.52,34.83,27.9,58.1l-15.94,105.48c-0.29,1.93-1.6,3.56-3.42,4.26
			C929.56,481.63,911.58,487.6,891.68,487.6z"/>
		<path class="st7" d="M967.66,475.71c-1.25,0-2.36-0.77-2.82-1.93l-19.74-51.1l-16.15-79.61c-1.25-6.14,1.28-12.43,6.42-16.01l0,0
			c7.12-4.95,16.9-3.2,21.85,3.92c1.33,1.91,2.22,4.09,2.6,6.39l4.52,27.11l22.41,103.78c0.34,1.6-0.66,3.19-2.26,3.57l-16.15,3.8
			C968.12,475.68,967.89,475.71,967.66,475.71z"/>
		<path class="st7" d="M840.46,475.71c-0.23,0-0.46-0.03-0.69-0.08l-16.15-3.8c-1.59-0.38-2.6-1.96-2.26-3.57l22.41-103.81
			l4.51-27.08c1.43-8.55,9.51-14.33,18.07-12.91c2.29,0.38,4.48,1.27,6.39,2.6l0,0c5.14,3.58,7.67,9.87,6.42,16.01l-16.12,79.51
			l-19.77,51.2C842.82,474.94,841.7,475.71,840.46,475.71z"/>
		<path class="st8" d="M927.98,292.85c-2.74,1.58-13.58,2.62-14.35-0.44l-0.02-0.07c-0.54-2.25-0.09-4.6,0.06-6.9
			c0.15-2.31-0.07-4.84-1.64-6.54c-2.93-3.16-8.14-1.49-12.37-2.28c-5.13-1.15-8.61-5.92-8.13-11.16c0.06-0.48,0.15-0.96,0.26-1.44
			c0.95-4.34-1.81-8.63-6.15-9.58c-0.72-0.16-1.47-0.21-2.2-0.17c-4.28,0.24-8.9,1.54-12.44-1.63c-2.74-2.45-3.41-8.83-2.2-12.3
			c2.02-5.83,14.97-8.89,20.62-10.57c14.16-4.09,29.41-1.59,41.52,6.81c3.57,2.52,6.91,5.68,8.43,9.77
			c1.52,4.1,0.79,9.26-2.64,11.97c5.41,5.73,7.37,13.91,5.12,21.47C940.15,285.26,932.06,290.5,927.98,292.85z"/>
		<path class="st2" d="M994.98,703.35H782.74c-0.67,0-1.21-0.54-1.21-1.21c0-0.67,0.54-1.21,1.21-1.21h212.24
			c0.67,0,1.21,0.54,1.21,1.21C996.19,702.81,995.65,703.35,994.98,703.35z"/>
	</g>
</g>
</svg>
